<mxfile host="app.diagrams.net" modified="2021-09-22T13:50:41.025Z" agent="5.0 (Windows NT 10.0; Win64; x64) AppleWebKit/537.36 (KHTML, like Gecko) Chrome/94.0.4606.54 Safari/537.36" etag="vl8KPrHGeudyL6N5WOHu" version="15.2.9" type="github" pages="4">
  <diagram id="C5RBs43oDa-KdzZeNtuy" name="8259A处理流程">
    <mxGraphModel dx="1550" dy="835" grid="1" gridSize="10" guides="1" tooltips="1" connect="1" arrows="1" fold="1" page="1" pageScale="1" pageWidth="827" pageHeight="1169" math="0" shadow="0">
      <root>
        <mxCell id="WIyWlLk6GJQsqaUBKTNV-0" />
        <mxCell id="WIyWlLk6GJQsqaUBKTNV-1" parent="WIyWlLk6GJQsqaUBKTNV-0" />
        <mxCell id="WIyWlLk6GJQsqaUBKTNV-2" value="" style="rounded=0;html=1;jettySize=auto;orthogonalLoop=1;fontSize=11;endArrow=block;endFill=0;endSize=8;strokeWidth=1;shadow=0;labelBackgroundColor=none;edgeStyle=orthogonalEdgeStyle;" parent="WIyWlLk6GJQsqaUBKTNV-1" source="WIyWlLk6GJQsqaUBKTNV-3" target="WIyWlLk6GJQsqaUBKTNV-6" edge="1">
          <mxGeometry relative="1" as="geometry" />
        </mxCell>
        <mxCell id="WIyWlLk6GJQsqaUBKTNV-3" value="&lt;div&gt;中断信号通过某个 I&lt;span&gt;RQ 接口送入 8259A&lt;/span&gt;&lt;/div&gt;" style="rounded=1;whiteSpace=wrap;html=1;fontSize=12;glass=0;strokeWidth=1;shadow=0;" parent="WIyWlLk6GJQsqaUBKTNV-1" vertex="1">
          <mxGeometry x="160" y="80" width="130" height="40" as="geometry" />
        </mxCell>
        <mxCell id="WIyWlLk6GJQsqaUBKTNV-4" value="Yes" style="rounded=0;html=1;jettySize=auto;orthogonalLoop=1;fontSize=11;endArrow=block;endFill=0;endSize=8;strokeWidth=1;shadow=0;labelBackgroundColor=none;edgeStyle=orthogonalEdgeStyle;" parent="WIyWlLk6GJQsqaUBKTNV-1" source="WIyWlLk6GJQsqaUBKTNV-6" target="WIyWlLk6GJQsqaUBKTNV-10" edge="1">
          <mxGeometry y="20" relative="1" as="geometry">
            <mxPoint as="offset" />
          </mxGeometry>
        </mxCell>
        <mxCell id="WIyWlLk6GJQsqaUBKTNV-5" value="No" style="edgeStyle=orthogonalEdgeStyle;rounded=0;html=1;jettySize=auto;orthogonalLoop=1;fontSize=11;endArrow=block;endFill=0;endSize=8;strokeWidth=1;shadow=0;labelBackgroundColor=none;" parent="WIyWlLk6GJQsqaUBKTNV-1" source="WIyWlLk6GJQsqaUBKTNV-6" target="WIyWlLk6GJQsqaUBKTNV-7" edge="1">
          <mxGeometry y="10" relative="1" as="geometry">
            <mxPoint as="offset" />
          </mxGeometry>
        </mxCell>
        <mxCell id="WIyWlLk6GJQsqaUBKTNV-6" value="Lamp&lt;br&gt;plugged in?" style="rhombus;whiteSpace=wrap;html=1;shadow=0;fontFamily=Helvetica;fontSize=12;align=center;strokeWidth=1;spacing=6;spacingTop=-4;" parent="WIyWlLk6GJQsqaUBKTNV-1" vertex="1">
          <mxGeometry x="170" y="170" width="100" height="80" as="geometry" />
        </mxCell>
        <mxCell id="WIyWlLk6GJQsqaUBKTNV-7" value="Plug in lamp" style="rounded=1;whiteSpace=wrap;html=1;fontSize=12;glass=0;strokeWidth=1;shadow=0;" parent="WIyWlLk6GJQsqaUBKTNV-1" vertex="1">
          <mxGeometry x="320" y="190" width="120" height="40" as="geometry" />
        </mxCell>
        <mxCell id="WIyWlLk6GJQsqaUBKTNV-8" value="No" style="rounded=0;html=1;jettySize=auto;orthogonalLoop=1;fontSize=11;endArrow=block;endFill=0;endSize=8;strokeWidth=1;shadow=0;labelBackgroundColor=none;edgeStyle=orthogonalEdgeStyle;" parent="WIyWlLk6GJQsqaUBKTNV-1" source="WIyWlLk6GJQsqaUBKTNV-10" target="WIyWlLk6GJQsqaUBKTNV-11" edge="1">
          <mxGeometry x="0.3333" y="20" relative="1" as="geometry">
            <mxPoint as="offset" />
          </mxGeometry>
        </mxCell>
        <mxCell id="WIyWlLk6GJQsqaUBKTNV-9" value="Yes" style="edgeStyle=orthogonalEdgeStyle;rounded=0;html=1;jettySize=auto;orthogonalLoop=1;fontSize=11;endArrow=block;endFill=0;endSize=8;strokeWidth=1;shadow=0;labelBackgroundColor=none;" parent="WIyWlLk6GJQsqaUBKTNV-1" source="WIyWlLk6GJQsqaUBKTNV-10" target="WIyWlLk6GJQsqaUBKTNV-12" edge="1">
          <mxGeometry y="10" relative="1" as="geometry">
            <mxPoint as="offset" />
          </mxGeometry>
        </mxCell>
        <mxCell id="WIyWlLk6GJQsqaUBKTNV-10" value="Bulb&lt;br&gt;burned out?" style="rhombus;whiteSpace=wrap;html=1;shadow=0;fontFamily=Helvetica;fontSize=12;align=center;strokeWidth=1;spacing=6;spacingTop=-4;" parent="WIyWlLk6GJQsqaUBKTNV-1" vertex="1">
          <mxGeometry x="170" y="290" width="100" height="80" as="geometry" />
        </mxCell>
        <mxCell id="WIyWlLk6GJQsqaUBKTNV-11" value="Repair Lamp" style="rounded=1;whiteSpace=wrap;html=1;fontSize=12;glass=0;strokeWidth=1;shadow=0;" parent="WIyWlLk6GJQsqaUBKTNV-1" vertex="1">
          <mxGeometry x="160" y="430" width="120" height="40" as="geometry" />
        </mxCell>
        <mxCell id="WIyWlLk6GJQsqaUBKTNV-12" value="Replace Bulb" style="rounded=1;whiteSpace=wrap;html=1;fontSize=12;glass=0;strokeWidth=1;shadow=0;" parent="WIyWlLk6GJQsqaUBKTNV-1" vertex="1">
          <mxGeometry x="320" y="310" width="120" height="40" as="geometry" />
        </mxCell>
      </root>
    </mxGraphModel>
  </diagram>
  <diagram id="fr57ZLvrTkwuQWSCJ015" name="ICW3寄存器设置">
    <mxGraphModel dx="1550" dy="835" grid="1" gridSize="10" guides="1" tooltips="1" connect="1" arrows="1" fold="1" page="1" pageScale="1" pageWidth="827" pageHeight="1169" background="#ffffff" math="0" shadow="0">
      <root>
        <mxCell id="IrEBUWrStygud0Z41Z_R-0" />
        <mxCell id="IrEBUWrStygud0Z41Z_R-1" parent="IrEBUWrStygud0Z41Z_R-0" />
        <mxCell id="IrEBUWrStygud0Z41Z_R-67" value="" style="whiteSpace=wrap;html=1;dashed=1;" parent="IrEBUWrStygud0Z41Z_R-1" vertex="1">
          <mxGeometry x="465" y="160" width="355" height="120" as="geometry" />
        </mxCell>
        <mxCell id="IrEBUWrStygud0Z41Z_R-64" value="" style="whiteSpace=wrap;html=1;dashed=1;" parent="IrEBUWrStygud0Z41Z_R-1" vertex="1">
          <mxGeometry x="250" y="360" width="350" height="140" as="geometry" />
        </mxCell>
        <mxCell id="IrEBUWrStygud0Z41Z_R-61" value="" style="whiteSpace=wrap;html=1;dashed=1;" parent="IrEBUWrStygud0Z41Z_R-1" vertex="1">
          <mxGeometry x="705" y="360" width="350" height="140" as="geometry" />
        </mxCell>
        <mxCell id="IrEBUWrStygud0Z41Z_R-2" value="" style="group;dashed=1;" parent="IrEBUWrStygud0Z41Z_R-1" vertex="1" connectable="0">
          <mxGeometry x="260" y="380" width="350.15" height="132.5" as="geometry" />
        </mxCell>
        <mxCell id="IrEBUWrStygud0Z41Z_R-3" value="0" style="rounded=0;whiteSpace=wrap;html=1;" parent="IrEBUWrStygud0Z41Z_R-2" vertex="1">
          <mxGeometry y="20" width="39.99999999999999" height="40" as="geometry" />
        </mxCell>
        <mxCell id="IrEBUWrStygud0Z41Z_R-4" value="0" style="rounded=0;whiteSpace=wrap;html=1;" parent="IrEBUWrStygud0Z41Z_R-2" vertex="1">
          <mxGeometry x="39.99999999999999" y="20" width="39.99999999999999" height="40" as="geometry" />
        </mxCell>
        <mxCell id="IrEBUWrStygud0Z41Z_R-5" value="0" style="rounded=0;whiteSpace=wrap;html=1;" parent="IrEBUWrStygud0Z41Z_R-2" vertex="1">
          <mxGeometry x="79.99999999999999" y="20" width="39.99999999999999" height="40" as="geometry" />
        </mxCell>
        <mxCell id="IrEBUWrStygud0Z41Z_R-6" value="0" style="rounded=0;whiteSpace=wrap;html=1;" parent="IrEBUWrStygud0Z41Z_R-2" vertex="1">
          <mxGeometry x="119.99999999999999" y="20" width="39.99999999999999" height="40" as="geometry" />
        </mxCell>
        <mxCell id="IrEBUWrStygud0Z41Z_R-7" value="0" style="rounded=0;whiteSpace=wrap;html=1;" parent="IrEBUWrStygud0Z41Z_R-2" vertex="1">
          <mxGeometry x="159.99999999999997" y="20" width="39.99999999999999" height="40" as="geometry" />
        </mxCell>
        <mxCell id="IrEBUWrStygud0Z41Z_R-8" value="1" style="rounded=0;whiteSpace=wrap;html=1;" parent="IrEBUWrStygud0Z41Z_R-2" vertex="1">
          <mxGeometry x="200" y="20" width="39.99999999999999" height="40" as="geometry" />
        </mxCell>
        <mxCell id="IrEBUWrStygud0Z41Z_R-9" value="0" style="rounded=0;whiteSpace=wrap;html=1;" parent="IrEBUWrStygud0Z41Z_R-2" vertex="1">
          <mxGeometry x="239.99999999999997" y="20" width="39.99999999999999" height="40" as="geometry" />
        </mxCell>
        <mxCell id="IrEBUWrStygud0Z41Z_R-10" value="1" style="rounded=0;whiteSpace=wrap;html=1;" parent="IrEBUWrStygud0Z41Z_R-2" vertex="1">
          <mxGeometry x="279.99999999999994" y="20" width="39.99999999999999" height="40" as="geometry" />
        </mxCell>
        <mxCell id="IrEBUWrStygud0Z41Z_R-11" value="4" style="text;html=1;strokeColor=none;fillColor=none;align=center;verticalAlign=middle;whiteSpace=wrap;rounded=0;" parent="IrEBUWrStygud0Z41Z_R-2" vertex="1">
          <mxGeometry x="119.99999999999999" width="39.99999999999999" height="20" as="geometry" />
        </mxCell>
        <mxCell id="IrEBUWrStygud0Z41Z_R-12" value="5" style="text;html=1;strokeColor=none;fillColor=none;align=center;verticalAlign=middle;whiteSpace=wrap;rounded=0;" parent="IrEBUWrStygud0Z41Z_R-2" vertex="1">
          <mxGeometry x="79.99999999999999" width="39.99999999999999" height="20" as="geometry" />
        </mxCell>
        <mxCell id="IrEBUWrStygud0Z41Z_R-13" value="6" style="text;html=1;strokeColor=none;fillColor=none;align=center;verticalAlign=middle;whiteSpace=wrap;rounded=0;" parent="IrEBUWrStygud0Z41Z_R-2" vertex="1">
          <mxGeometry x="39.99999999999999" width="39.99999999999999" height="20" as="geometry" />
        </mxCell>
        <mxCell id="IrEBUWrStygud0Z41Z_R-14" value="7" style="text;html=1;strokeColor=none;fillColor=none;align=center;verticalAlign=middle;whiteSpace=wrap;rounded=0;" parent="IrEBUWrStygud0Z41Z_R-2" vertex="1">
          <mxGeometry width="39.99999999999999" height="20" as="geometry" />
        </mxCell>
        <mxCell id="IrEBUWrStygud0Z41Z_R-15" value="IDT0" style="text;html=1;strokeColor=none;fillColor=none;align=center;verticalAlign=middle;whiteSpace=wrap;rounded=0;" parent="IrEBUWrStygud0Z41Z_R-2" vertex="1">
          <mxGeometry x="279.99999999999994" width="39.99999999999999" height="20" as="geometry" />
        </mxCell>
        <mxCell id="IrEBUWrStygud0Z41Z_R-16" value="IDT1" style="text;html=1;strokeColor=none;fillColor=none;align=center;verticalAlign=middle;whiteSpace=wrap;rounded=0;" parent="IrEBUWrStygud0Z41Z_R-2" vertex="1">
          <mxGeometry x="239.99999999999997" width="39.99999999999999" height="20" as="geometry" />
        </mxCell>
        <mxCell id="IrEBUWrStygud0Z41Z_R-17" value="IDT2" style="text;html=1;strokeColor=none;fillColor=none;align=center;verticalAlign=middle;whiteSpace=wrap;rounded=0;" parent="IrEBUWrStygud0Z41Z_R-2" vertex="1">
          <mxGeometry x="200" width="39.99999999999999" height="20" as="geometry" />
        </mxCell>
        <mxCell id="IrEBUWrStygud0Z41Z_R-36" value="从片A的ICW3" style="text;html=1;strokeColor=none;fillColor=none;align=center;verticalAlign=middle;whiteSpace=wrap;rounded=0;" parent="IrEBUWrStygud0Z41Z_R-2" vertex="1">
          <mxGeometry x="120.00000000000001" y="70" width="79.99999999999999" height="22" as="geometry" />
        </mxCell>
        <mxCell id="IrEBUWrStygud0Z41Z_R-18" value="3" style="text;html=1;strokeColor=none;fillColor=none;align=center;verticalAlign=middle;whiteSpace=wrap;rounded=0;" parent="IrEBUWrStygud0Z41Z_R-2" vertex="1">
          <mxGeometry x="160" width="39.99999999999999" height="20" as="geometry" />
        </mxCell>
        <mxCell id="IrEBUWrStygud0Z41Z_R-39" value="" style="group" parent="IrEBUWrStygud0Z41Z_R-1" vertex="1" connectable="0">
          <mxGeometry x="480" y="180" width="320" height="60" as="geometry" />
        </mxCell>
        <mxCell id="IrEBUWrStygud0Z41Z_R-40" value="0" style="rounded=0;whiteSpace=wrap;html=1;" parent="IrEBUWrStygud0Z41Z_R-39" vertex="1">
          <mxGeometry y="20" width="40" height="40" as="geometry" />
        </mxCell>
        <mxCell id="IrEBUWrStygud0Z41Z_R-41" value="0" style="rounded=0;whiteSpace=wrap;html=1;" parent="IrEBUWrStygud0Z41Z_R-39" vertex="1">
          <mxGeometry x="40" y="20" width="40" height="40" as="geometry" />
        </mxCell>
        <mxCell id="IrEBUWrStygud0Z41Z_R-42" value="1" style="rounded=0;whiteSpace=wrap;html=1;" parent="IrEBUWrStygud0Z41Z_R-39" vertex="1">
          <mxGeometry x="80" y="20" width="40" height="40" as="geometry" />
        </mxCell>
        <mxCell id="IrEBUWrStygud0Z41Z_R-43" value="0" style="rounded=0;whiteSpace=wrap;html=1;" parent="IrEBUWrStygud0Z41Z_R-39" vertex="1">
          <mxGeometry x="120" y="20" width="40" height="40" as="geometry" />
        </mxCell>
        <mxCell id="IrEBUWrStygud0Z41Z_R-44" value="0" style="rounded=0;whiteSpace=wrap;html=1;" parent="IrEBUWrStygud0Z41Z_R-39" vertex="1">
          <mxGeometry x="160" y="20" width="40" height="40" as="geometry" />
        </mxCell>
        <mxCell id="IrEBUWrStygud0Z41Z_R-45" value="1" style="rounded=0;whiteSpace=wrap;html=1;" parent="IrEBUWrStygud0Z41Z_R-39" vertex="1">
          <mxGeometry x="200" y="20" width="40" height="40" as="geometry" />
        </mxCell>
        <mxCell id="IrEBUWrStygud0Z41Z_R-46" value="0" style="rounded=0;whiteSpace=wrap;html=1;" parent="IrEBUWrStygud0Z41Z_R-39" vertex="1">
          <mxGeometry x="240" y="20" width="40" height="40" as="geometry" />
        </mxCell>
        <mxCell id="IrEBUWrStygud0Z41Z_R-47" value="0" style="rounded=0;whiteSpace=wrap;html=1;" parent="IrEBUWrStygud0Z41Z_R-39" vertex="1">
          <mxGeometry x="280" y="20" width="40" height="40" as="geometry" />
        </mxCell>
        <mxCell id="IrEBUWrStygud0Z41Z_R-48" value="4" style="text;html=1;strokeColor=none;fillColor=none;align=center;verticalAlign=middle;whiteSpace=wrap;rounded=0;" parent="IrEBUWrStygud0Z41Z_R-39" vertex="1">
          <mxGeometry x="120" width="40" height="20" as="geometry" />
        </mxCell>
        <mxCell id="IrEBUWrStygud0Z41Z_R-49" value="5" style="text;html=1;strokeColor=none;fillColor=none;align=center;verticalAlign=middle;whiteSpace=wrap;rounded=0;" parent="IrEBUWrStygud0Z41Z_R-39" vertex="1">
          <mxGeometry x="80" width="40" height="20" as="geometry" />
        </mxCell>
        <mxCell id="IrEBUWrStygud0Z41Z_R-50" value="6" style="text;html=1;strokeColor=none;fillColor=none;align=center;verticalAlign=middle;whiteSpace=wrap;rounded=0;" parent="IrEBUWrStygud0Z41Z_R-39" vertex="1">
          <mxGeometry x="40" width="40" height="20" as="geometry" />
        </mxCell>
        <mxCell id="IrEBUWrStygud0Z41Z_R-51" value="7" style="text;html=1;strokeColor=none;fillColor=none;align=center;verticalAlign=middle;whiteSpace=wrap;rounded=0;" parent="IrEBUWrStygud0Z41Z_R-39" vertex="1">
          <mxGeometry width="40" height="20" as="geometry" />
        </mxCell>
        <mxCell id="IrEBUWrStygud0Z41Z_R-52" value="0" style="text;html=1;strokeColor=none;fillColor=none;align=center;verticalAlign=middle;whiteSpace=wrap;rounded=0;" parent="IrEBUWrStygud0Z41Z_R-39" vertex="1">
          <mxGeometry x="280" width="40" height="20" as="geometry" />
        </mxCell>
        <mxCell id="IrEBUWrStygud0Z41Z_R-53" value="1" style="text;html=1;strokeColor=none;fillColor=none;align=center;verticalAlign=middle;whiteSpace=wrap;rounded=0;" parent="IrEBUWrStygud0Z41Z_R-39" vertex="1">
          <mxGeometry x="240" width="40" height="20" as="geometry" />
        </mxCell>
        <mxCell id="IrEBUWrStygud0Z41Z_R-54" value="2" style="text;html=1;strokeColor=none;fillColor=none;align=center;verticalAlign=middle;whiteSpace=wrap;rounded=0;" parent="IrEBUWrStygud0Z41Z_R-39" vertex="1">
          <mxGeometry x="200" width="40" height="20" as="geometry" />
        </mxCell>
        <mxCell id="IrEBUWrStygud0Z41Z_R-55" value="3" style="text;html=1;strokeColor=none;fillColor=none;align=center;verticalAlign=middle;whiteSpace=wrap;rounded=0;" parent="IrEBUWrStygud0Z41Z_R-39" vertex="1">
          <mxGeometry x="160" width="40" height="20" as="geometry" />
        </mxCell>
        <mxCell id="IrEBUWrStygud0Z41Z_R-56" style="edgeStyle=orthogonalEdgeStyle;rounded=0;orthogonalLoop=1;jettySize=auto;html=1;exitX=0.5;exitY=1;exitDx=0;exitDy=0;" parent="IrEBUWrStygud0Z41Z_R-1" source="IrEBUWrStygud0Z41Z_R-42" target="IrEBUWrStygud0Z41Z_R-64" edge="1">
          <mxGeometry relative="1" as="geometry" />
        </mxCell>
        <mxCell id="IrEBUWrStygud0Z41Z_R-58" style="edgeStyle=orthogonalEdgeStyle;rounded=0;orthogonalLoop=1;jettySize=auto;html=1;exitX=0.5;exitY=1;exitDx=0;exitDy=0;entryX=0.5;entryY=0;entryDx=0;entryDy=0;" parent="IrEBUWrStygud0Z41Z_R-1" source="IrEBUWrStygud0Z41Z_R-45" target="IrEBUWrStygud0Z41Z_R-61" edge="1">
          <mxGeometry relative="1" as="geometry" />
        </mxCell>
        <mxCell id="IrEBUWrStygud0Z41Z_R-62" value="" style="group" parent="IrEBUWrStygud0Z41Z_R-1" vertex="1" connectable="0">
          <mxGeometry x="720" y="380" width="320" height="90" as="geometry" />
        </mxCell>
        <mxCell id="IrEBUWrStygud0Z41Z_R-19" value="" style="group" parent="IrEBUWrStygud0Z41Z_R-62" vertex="1" connectable="0">
          <mxGeometry width="320" height="60" as="geometry" />
        </mxCell>
        <mxCell id="IrEBUWrStygud0Z41Z_R-20" value="0" style="rounded=0;whiteSpace=wrap;html=1;" parent="IrEBUWrStygud0Z41Z_R-19" vertex="1">
          <mxGeometry y="20" width="40" height="40" as="geometry" />
        </mxCell>
        <mxCell id="IrEBUWrStygud0Z41Z_R-21" value="0" style="rounded=0;whiteSpace=wrap;html=1;" parent="IrEBUWrStygud0Z41Z_R-19" vertex="1">
          <mxGeometry x="40" y="20" width="40" height="40" as="geometry" />
        </mxCell>
        <mxCell id="IrEBUWrStygud0Z41Z_R-22" value="0" style="rounded=0;whiteSpace=wrap;html=1;" parent="IrEBUWrStygud0Z41Z_R-19" vertex="1">
          <mxGeometry x="80" y="20" width="40" height="40" as="geometry" />
        </mxCell>
        <mxCell id="IrEBUWrStygud0Z41Z_R-23" value="0" style="rounded=0;whiteSpace=wrap;html=1;" parent="IrEBUWrStygud0Z41Z_R-19" vertex="1">
          <mxGeometry x="120" y="20" width="40" height="40" as="geometry" />
        </mxCell>
        <mxCell id="IrEBUWrStygud0Z41Z_R-24" value="0" style="rounded=0;whiteSpace=wrap;html=1;" parent="IrEBUWrStygud0Z41Z_R-19" vertex="1">
          <mxGeometry x="160" y="20" width="40" height="40" as="geometry" />
        </mxCell>
        <mxCell id="IrEBUWrStygud0Z41Z_R-25" value="0" style="rounded=0;whiteSpace=wrap;html=1;" parent="IrEBUWrStygud0Z41Z_R-19" vertex="1">
          <mxGeometry x="200" y="20" width="40" height="40" as="geometry" />
        </mxCell>
        <mxCell id="IrEBUWrStygud0Z41Z_R-26" value="1" style="rounded=0;whiteSpace=wrap;html=1;" parent="IrEBUWrStygud0Z41Z_R-19" vertex="1">
          <mxGeometry x="240" y="20" width="40" height="40" as="geometry" />
        </mxCell>
        <mxCell id="IrEBUWrStygud0Z41Z_R-27" value="0" style="rounded=0;whiteSpace=wrap;html=1;" parent="IrEBUWrStygud0Z41Z_R-19" vertex="1">
          <mxGeometry x="280" y="20" width="40" height="40" as="geometry" />
        </mxCell>
        <mxCell id="IrEBUWrStygud0Z41Z_R-29" value="5" style="text;html=1;strokeColor=none;fillColor=none;align=center;verticalAlign=middle;whiteSpace=wrap;rounded=0;" parent="IrEBUWrStygud0Z41Z_R-19" vertex="1">
          <mxGeometry x="80" width="40" height="20" as="geometry" />
        </mxCell>
        <mxCell id="IrEBUWrStygud0Z41Z_R-30" value="6" style="text;html=1;strokeColor=none;fillColor=none;align=center;verticalAlign=middle;whiteSpace=wrap;rounded=0;" parent="IrEBUWrStygud0Z41Z_R-19" vertex="1">
          <mxGeometry x="40" width="40" height="20" as="geometry" />
        </mxCell>
        <mxCell id="IrEBUWrStygud0Z41Z_R-31" value="7" style="text;html=1;strokeColor=none;fillColor=none;align=center;verticalAlign=middle;whiteSpace=wrap;rounded=0;" parent="IrEBUWrStygud0Z41Z_R-19" vertex="1">
          <mxGeometry width="40" height="20" as="geometry" />
        </mxCell>
        <mxCell id="IrEBUWrStygud0Z41Z_R-32" value="IDT0" style="text;html=1;strokeColor=none;fillColor=none;align=center;verticalAlign=middle;whiteSpace=wrap;rounded=0;" parent="IrEBUWrStygud0Z41Z_R-19" vertex="1">
          <mxGeometry x="280" width="40" height="20" as="geometry" />
        </mxCell>
        <mxCell id="IrEBUWrStygud0Z41Z_R-33" value="IDT1" style="text;html=1;strokeColor=none;fillColor=none;align=center;verticalAlign=middle;whiteSpace=wrap;rounded=0;" parent="IrEBUWrStygud0Z41Z_R-19" vertex="1">
          <mxGeometry x="240" width="40" height="20" as="geometry" />
        </mxCell>
        <mxCell id="IrEBUWrStygud0Z41Z_R-34" value="IDT2" style="text;html=1;strokeColor=none;fillColor=none;align=center;verticalAlign=middle;whiteSpace=wrap;rounded=0;" parent="IrEBUWrStygud0Z41Z_R-19" vertex="1">
          <mxGeometry x="200" width="40" height="20" as="geometry" />
        </mxCell>
        <mxCell id="IrEBUWrStygud0Z41Z_R-37" value="从片B的ICW3" style="text;html=1;strokeColor=none;fillColor=none;align=center;verticalAlign=middle;whiteSpace=wrap;rounded=0;" parent="IrEBUWrStygud0Z41Z_R-62" vertex="1">
          <mxGeometry x="110" y="70" width="100" height="20" as="geometry" />
        </mxCell>
        <mxCell id="IrEBUWrStygud0Z41Z_R-63" style="edgeStyle=orthogonalEdgeStyle;rounded=0;orthogonalLoop=1;jettySize=auto;html=1;exitX=0.5;exitY=1;exitDx=0;exitDy=0;" parent="IrEBUWrStygud0Z41Z_R-62" source="IrEBUWrStygud0Z41Z_R-37" target="IrEBUWrStygud0Z41Z_R-37" edge="1">
          <mxGeometry relative="1" as="geometry" />
        </mxCell>
        <mxCell id="IrEBUWrStygud0Z41Z_R-65" value="主片的ICW3" style="text;html=1;strokeColor=none;fillColor=none;align=center;verticalAlign=middle;whiteSpace=wrap;rounded=0;" parent="IrEBUWrStygud0Z41Z_R-1" vertex="1">
          <mxGeometry x="600" y="250" width="79.99999999999999" height="22" as="geometry" />
        </mxCell>
        <mxCell id="IrEBUWrStygud0Z41Z_R-35" value="3" style="text;html=1;strokeColor=none;fillColor=none;align=center;verticalAlign=middle;whiteSpace=wrap;rounded=0;" parent="IrEBUWrStygud0Z41Z_R-1" vertex="1">
          <mxGeometry x="880" y="380" width="40" height="20" as="geometry" />
        </mxCell>
        <mxCell id="IrEBUWrStygud0Z41Z_R-28" value="4" style="text;html=1;strokeColor=none;fillColor=none;align=center;verticalAlign=middle;whiteSpace=wrap;rounded=0;" parent="IrEBUWrStygud0Z41Z_R-1" vertex="1">
          <mxGeometry x="840" y="380" width="40" height="20" as="geometry" />
        </mxCell>
      </root>
    </mxGraphModel>
  </diagram>
  <diagram id="ifxvXalpgl-uptJ65LGd" name="OCW控制字标识">
    <mxGraphModel dx="738" dy="398" grid="1" gridSize="10" guides="1" tooltips="1" connect="1" arrows="1" fold="1" page="1" pageScale="1" pageWidth="827" pageHeight="1169" math="0" shadow="0">
      <root>
        <mxCell id="KTixNWmU8ApgUEzbdF1A-0" />
        <mxCell id="KTixNWmU8ApgUEzbdF1A-1" parent="KTixNWmU8ApgUEzbdF1A-0" />
        <mxCell id="KTixNWmU8ApgUEzbdF1A-2" value="" style="shape=table;startSize=0;container=1;collapsible=0;childLayout=tableLayout;" vertex="1" parent="KTixNWmU8ApgUEzbdF1A-1">
          <mxGeometry x="280" y="480" width="280" height="100" as="geometry" />
        </mxCell>
        <mxCell id="KTixNWmU8ApgUEzbdF1A-3" value="" style="shape=partialRectangle;collapsible=0;dropTarget=0;pointerEvents=0;fillColor=none;top=0;left=0;bottom=0;right=0;points=[[0,0.5],[1,0.5]];portConstraint=eastwest;" vertex="1" parent="KTixNWmU8ApgUEzbdF1A-2">
          <mxGeometry width="280" height="25" as="geometry" />
        </mxCell>
        <mxCell id="KTixNWmU8ApgUEzbdF1A-4" value="控制字" style="shape=partialRectangle;html=1;whiteSpace=wrap;connectable=0;overflow=hidden;fillColor=none;top=0;left=0;bottom=0;right=0;pointerEvents=1;" vertex="1" parent="KTixNWmU8ApgUEzbdF1A-3">
          <mxGeometry width="93" height="25" as="geometry">
            <mxRectangle width="93" height="25" as="alternateBounds" />
          </mxGeometry>
        </mxCell>
        <mxCell id="KTixNWmU8ApgUEzbdF1A-5" value="第 4 位" style="shape=partialRectangle;html=1;whiteSpace=wrap;connectable=0;overflow=hidden;fillColor=none;top=0;left=0;bottom=0;right=0;pointerEvents=1;" vertex="1" parent="KTixNWmU8ApgUEzbdF1A-3">
          <mxGeometry x="93" width="94" height="25" as="geometry">
            <mxRectangle width="94" height="25" as="alternateBounds" />
          </mxGeometry>
        </mxCell>
        <mxCell id="KTixNWmU8ApgUEzbdF1A-6" value="第 3 位" style="shape=partialRectangle;html=1;whiteSpace=wrap;connectable=0;overflow=hidden;fillColor=none;top=0;left=0;bottom=0;right=0;pointerEvents=1;" vertex="1" parent="KTixNWmU8ApgUEzbdF1A-3">
          <mxGeometry x="187" width="93" height="25" as="geometry">
            <mxRectangle width="93" height="25" as="alternateBounds" />
          </mxGeometry>
        </mxCell>
        <mxCell id="KTixNWmU8ApgUEzbdF1A-7" value="" style="shape=partialRectangle;collapsible=0;dropTarget=0;pointerEvents=0;fillColor=none;top=0;left=0;bottom=0;right=0;points=[[0,0.5],[1,0.5]];portConstraint=eastwest;" vertex="1" parent="KTixNWmU8ApgUEzbdF1A-2">
          <mxGeometry y="25" width="280" height="25" as="geometry" />
        </mxCell>
        <mxCell id="KTixNWmU8ApgUEzbdF1A-8" value="ICW1" style="shape=partialRectangle;html=1;whiteSpace=wrap;connectable=0;overflow=hidden;fillColor=none;top=0;left=0;bottom=0;right=0;pointerEvents=1;" vertex="1" parent="KTixNWmU8ApgUEzbdF1A-7">
          <mxGeometry width="93" height="25" as="geometry">
            <mxRectangle width="93" height="25" as="alternateBounds" />
          </mxGeometry>
        </mxCell>
        <mxCell id="KTixNWmU8ApgUEzbdF1A-9" value="1" style="shape=partialRectangle;html=1;whiteSpace=wrap;connectable=0;overflow=hidden;fillColor=none;top=0;left=0;bottom=0;right=0;pointerEvents=1;" vertex="1" parent="KTixNWmU8ApgUEzbdF1A-7">
          <mxGeometry x="93" width="94" height="25" as="geometry">
            <mxRectangle width="94" height="25" as="alternateBounds" />
          </mxGeometry>
        </mxCell>
        <mxCell id="KTixNWmU8ApgUEzbdF1A-10" value="/" style="shape=partialRectangle;html=1;whiteSpace=wrap;connectable=0;overflow=hidden;fillColor=none;top=0;left=0;bottom=0;right=0;pointerEvents=1;" vertex="1" parent="KTixNWmU8ApgUEzbdF1A-7">
          <mxGeometry x="187" width="93" height="25" as="geometry">
            <mxRectangle width="93" height="25" as="alternateBounds" />
          </mxGeometry>
        </mxCell>
        <mxCell id="KTixNWmU8ApgUEzbdF1A-11" value="" style="shape=partialRectangle;collapsible=0;dropTarget=0;pointerEvents=0;fillColor=none;top=0;left=0;bottom=0;right=0;points=[[0,0.5],[1,0.5]];portConstraint=eastwest;" vertex="1" parent="KTixNWmU8ApgUEzbdF1A-2">
          <mxGeometry y="50" width="280" height="25" as="geometry" />
        </mxCell>
        <mxCell id="KTixNWmU8ApgUEzbdF1A-12" value="OCW2" style="shape=partialRectangle;html=1;whiteSpace=wrap;connectable=0;overflow=hidden;fillColor=none;top=0;left=0;bottom=0;right=0;pointerEvents=1;" vertex="1" parent="KTixNWmU8ApgUEzbdF1A-11">
          <mxGeometry width="93" height="25" as="geometry">
            <mxRectangle width="93" height="25" as="alternateBounds" />
          </mxGeometry>
        </mxCell>
        <mxCell id="KTixNWmU8ApgUEzbdF1A-13" value="0" style="shape=partialRectangle;html=1;whiteSpace=wrap;connectable=0;overflow=hidden;fillColor=none;top=0;left=0;bottom=0;right=0;pointerEvents=1;" vertex="1" parent="KTixNWmU8ApgUEzbdF1A-11">
          <mxGeometry x="93" width="94" height="25" as="geometry">
            <mxRectangle width="94" height="25" as="alternateBounds" />
          </mxGeometry>
        </mxCell>
        <mxCell id="KTixNWmU8ApgUEzbdF1A-14" value="0" style="shape=partialRectangle;html=1;whiteSpace=wrap;connectable=0;overflow=hidden;fillColor=none;top=0;left=0;bottom=0;right=0;pointerEvents=1;" vertex="1" parent="KTixNWmU8ApgUEzbdF1A-11">
          <mxGeometry x="187" width="93" height="25" as="geometry">
            <mxRectangle width="93" height="25" as="alternateBounds" />
          </mxGeometry>
        </mxCell>
        <mxCell id="KTixNWmU8ApgUEzbdF1A-15" value="" style="shape=partialRectangle;collapsible=0;dropTarget=0;pointerEvents=0;fillColor=none;top=0;left=0;bottom=0;right=0;points=[[0,0.5],[1,0.5]];portConstraint=eastwest;" vertex="1" parent="KTixNWmU8ApgUEzbdF1A-2">
          <mxGeometry y="75" width="280" height="25" as="geometry" />
        </mxCell>
        <mxCell id="KTixNWmU8ApgUEzbdF1A-16" value="OCW3" style="shape=partialRectangle;html=1;whiteSpace=wrap;connectable=0;overflow=hidden;fillColor=none;top=0;left=0;bottom=0;right=0;pointerEvents=1;" vertex="1" parent="KTixNWmU8ApgUEzbdF1A-15">
          <mxGeometry width="93" height="25" as="geometry">
            <mxRectangle width="93" height="25" as="alternateBounds" />
          </mxGeometry>
        </mxCell>
        <mxCell id="KTixNWmU8ApgUEzbdF1A-17" value="0" style="shape=partialRectangle;html=1;whiteSpace=wrap;connectable=0;overflow=hidden;fillColor=none;top=0;left=0;bottom=0;right=0;pointerEvents=1;" vertex="1" parent="KTixNWmU8ApgUEzbdF1A-15">
          <mxGeometry x="93" width="94" height="25" as="geometry">
            <mxRectangle width="94" height="25" as="alternateBounds" />
          </mxGeometry>
        </mxCell>
        <mxCell id="KTixNWmU8ApgUEzbdF1A-18" value="1" style="shape=partialRectangle;html=1;whiteSpace=wrap;connectable=0;overflow=hidden;fillColor=none;top=0;left=0;bottom=0;right=0;pointerEvents=1;" vertex="1" parent="KTixNWmU8ApgUEzbdF1A-15">
          <mxGeometry x="187" width="93" height="25" as="geometry">
            <mxRectangle width="93" height="25" as="alternateBounds" />
          </mxGeometry>
        </mxCell>
      </root>
    </mxGraphModel>
  </diagram>
  <diagram id="xHXcI31sxG9-g7DnWcPq" name="函数调用时栈中布局">
    <mxGraphModel dx="1550" dy="835" grid="1" gridSize="10" guides="1" tooltips="1" connect="1" arrows="1" fold="1" page="1" pageScale="1" pageWidth="827" pageHeight="1169" math="0" shadow="0">
      <root>
        <mxCell id="fOyBpGXJ5a-ghSul3GZQ-0" />
        <mxCell id="fOyBpGXJ5a-ghSul3GZQ-1" parent="fOyBpGXJ5a-ghSul3GZQ-0" />
        <mxCell id="fOyBpGXJ5a-ghSul3GZQ-58" value="" style="group" vertex="1" connectable="0" parent="fOyBpGXJ5a-ghSul3GZQ-1">
          <mxGeometry x="40" y="100" width="440" height="420" as="geometry" />
        </mxCell>
        <mxCell id="fOyBpGXJ5a-ghSul3GZQ-3" value="" style="shape=table;startSize=0;container=1;collapsible=0;childLayout=tableLayout;" vertex="1" parent="fOyBpGXJ5a-ghSul3GZQ-58">
          <mxGeometry x="120" y="20" width="160" height="400" as="geometry" />
        </mxCell>
        <mxCell id="fOyBpGXJ5a-ghSul3GZQ-4" value="" style="shape=partialRectangle;collapsible=0;dropTarget=0;pointerEvents=0;fillColor=none;top=0;left=0;bottom=0;right=0;points=[[0,0.5],[1,0.5]];portConstraint=eastwest;" vertex="1" parent="fOyBpGXJ5a-ghSul3GZQ-3">
          <mxGeometry width="160" height="40" as="geometry" />
        </mxCell>
        <mxCell id="fOyBpGXJ5a-ghSul3GZQ-5" value="参数2" style="shape=partialRectangle;html=1;whiteSpace=wrap;connectable=0;overflow=hidden;fillColor=none;top=0;left=0;bottom=0;right=0;pointerEvents=1;" vertex="1" parent="fOyBpGXJ5a-ghSul3GZQ-4">
          <mxGeometry width="160" height="40" as="geometry">
            <mxRectangle width="160" height="40" as="alternateBounds" />
          </mxGeometry>
        </mxCell>
        <mxCell id="fOyBpGXJ5a-ghSul3GZQ-6" value="" style="shape=partialRectangle;collapsible=0;dropTarget=0;pointerEvents=0;fillColor=none;top=0;left=0;bottom=0;right=0;points=[[0,0.5],[1,0.5]];portConstraint=eastwest;" vertex="1" parent="fOyBpGXJ5a-ghSul3GZQ-3">
          <mxGeometry y="40" width="160" height="40" as="geometry" />
        </mxCell>
        <mxCell id="fOyBpGXJ5a-ghSul3GZQ-7" value="参数1" style="shape=partialRectangle;html=1;whiteSpace=wrap;connectable=0;overflow=hidden;fillColor=none;top=0;left=0;bottom=0;right=0;pointerEvents=1;" vertex="1" parent="fOyBpGXJ5a-ghSul3GZQ-6">
          <mxGeometry width="160" height="40" as="geometry">
            <mxRectangle width="160" height="40" as="alternateBounds" />
          </mxGeometry>
        </mxCell>
        <mxCell id="fOyBpGXJ5a-ghSul3GZQ-8" value="" style="shape=partialRectangle;collapsible=0;dropTarget=0;pointerEvents=0;fillColor=none;top=0;left=0;bottom=0;right=0;points=[[0,0.5],[1,0.5]];portConstraint=eastwest;" vertex="1" parent="fOyBpGXJ5a-ghSul3GZQ-3">
          <mxGeometry y="80" width="160" height="40" as="geometry" />
        </mxCell>
        <mxCell id="fOyBpGXJ5a-ghSul3GZQ-9" value="函数返回地址" style="shape=partialRectangle;html=1;whiteSpace=wrap;connectable=0;overflow=hidden;fillColor=none;top=0;left=0;bottom=0;right=0;pointerEvents=1;" vertex="1" parent="fOyBpGXJ5a-ghSul3GZQ-8">
          <mxGeometry width="160" height="40" as="geometry">
            <mxRectangle width="160" height="40" as="alternateBounds" />
          </mxGeometry>
        </mxCell>
        <mxCell id="fOyBpGXJ5a-ghSul3GZQ-10" value="" style="shape=partialRectangle;collapsible=0;dropTarget=0;pointerEvents=0;fillColor=none;top=0;left=0;bottom=0;right=0;points=[[0,0.5],[1,0.5]];portConstraint=eastwest;" vertex="1" parent="fOyBpGXJ5a-ghSul3GZQ-3">
          <mxGeometry y="120" width="160" height="40" as="geometry" />
        </mxCell>
        <mxCell id="fOyBpGXJ5a-ghSul3GZQ-11" value="" style="shape=partialRectangle;html=1;whiteSpace=wrap;connectable=0;overflow=hidden;fillColor=none;top=0;left=0;bottom=0;right=0;pointerEvents=1;" vertex="1" parent="fOyBpGXJ5a-ghSul3GZQ-10">
          <mxGeometry width="160" height="40" as="geometry">
            <mxRectangle width="160" height="40" as="alternateBounds" />
          </mxGeometry>
        </mxCell>
        <mxCell id="fOyBpGXJ5a-ghSul3GZQ-12" value="" style="shape=partialRectangle;collapsible=0;dropTarget=0;pointerEvents=0;fillColor=none;top=0;left=0;bottom=0;right=0;points=[[0,0.5],[1,0.5]];portConstraint=eastwest;" vertex="1" parent="fOyBpGXJ5a-ghSul3GZQ-3">
          <mxGeometry y="160" width="160" height="40" as="geometry" />
        </mxCell>
        <mxCell id="fOyBpGXJ5a-ghSul3GZQ-13" value="" style="shape=partialRectangle;html=1;whiteSpace=wrap;connectable=0;overflow=hidden;fillColor=none;top=0;left=0;bottom=0;right=0;pointerEvents=1;" vertex="1" parent="fOyBpGXJ5a-ghSul3GZQ-12">
          <mxGeometry width="160" height="40" as="geometry">
            <mxRectangle width="160" height="40" as="alternateBounds" />
          </mxGeometry>
        </mxCell>
        <mxCell id="fOyBpGXJ5a-ghSul3GZQ-14" value="" style="shape=partialRectangle;collapsible=0;dropTarget=0;pointerEvents=0;fillColor=none;top=0;left=0;bottom=0;right=0;points=[[0,0.5],[1,0.5]];portConstraint=eastwest;" vertex="1" parent="fOyBpGXJ5a-ghSul3GZQ-3">
          <mxGeometry y="200" width="160" height="40" as="geometry" />
        </mxCell>
        <mxCell id="fOyBpGXJ5a-ghSul3GZQ-15" value="" style="shape=partialRectangle;html=1;whiteSpace=wrap;connectable=0;overflow=hidden;fillColor=none;top=0;left=0;bottom=0;right=0;pointerEvents=1;" vertex="1" parent="fOyBpGXJ5a-ghSul3GZQ-14">
          <mxGeometry width="160" height="40" as="geometry">
            <mxRectangle width="160" height="40" as="alternateBounds" />
          </mxGeometry>
        </mxCell>
        <mxCell id="fOyBpGXJ5a-ghSul3GZQ-18" value="" style="shape=partialRectangle;collapsible=0;dropTarget=0;pointerEvents=0;fillColor=none;top=0;left=0;bottom=0;right=0;points=[[0,0.5],[1,0.5]];portConstraint=eastwest;" vertex="1" parent="fOyBpGXJ5a-ghSul3GZQ-3">
          <mxGeometry y="240" width="160" height="40" as="geometry" />
        </mxCell>
        <mxCell id="fOyBpGXJ5a-ghSul3GZQ-19" value="" style="shape=partialRectangle;html=1;whiteSpace=wrap;connectable=0;overflow=hidden;fillColor=none;top=0;left=0;bottom=0;right=0;pointerEvents=1;" vertex="1" parent="fOyBpGXJ5a-ghSul3GZQ-18">
          <mxGeometry width="160" height="40" as="geometry">
            <mxRectangle width="160" height="40" as="alternateBounds" />
          </mxGeometry>
        </mxCell>
        <mxCell id="fOyBpGXJ5a-ghSul3GZQ-16" value="" style="shape=partialRectangle;collapsible=0;dropTarget=0;pointerEvents=0;fillColor=none;top=0;left=0;bottom=0;right=0;points=[[0,0.5],[1,0.5]];portConstraint=eastwest;" vertex="1" parent="fOyBpGXJ5a-ghSul3GZQ-3">
          <mxGeometry y="280" width="160" height="40" as="geometry" />
        </mxCell>
        <mxCell id="fOyBpGXJ5a-ghSul3GZQ-17" value="" style="shape=partialRectangle;html=1;whiteSpace=wrap;connectable=0;overflow=hidden;fillColor=none;top=0;left=0;bottom=0;right=0;pointerEvents=1;" vertex="1" parent="fOyBpGXJ5a-ghSul3GZQ-16">
          <mxGeometry width="160" height="40" as="geometry">
            <mxRectangle width="160" height="40" as="alternateBounds" />
          </mxGeometry>
        </mxCell>
        <mxCell id="fOyBpGXJ5a-ghSul3GZQ-20" value="" style="shape=partialRectangle;collapsible=0;dropTarget=0;pointerEvents=0;fillColor=none;top=0;left=0;bottom=0;right=0;points=[[0,0.5],[1,0.5]];portConstraint=eastwest;" vertex="1" parent="fOyBpGXJ5a-ghSul3GZQ-3">
          <mxGeometry y="320" width="160" height="40" as="geometry" />
        </mxCell>
        <mxCell id="fOyBpGXJ5a-ghSul3GZQ-21" value="" style="shape=partialRectangle;html=1;whiteSpace=wrap;connectable=0;overflow=hidden;fillColor=none;top=0;left=0;bottom=0;right=0;pointerEvents=1;" vertex="1" parent="fOyBpGXJ5a-ghSul3GZQ-20">
          <mxGeometry width="160" height="40" as="geometry">
            <mxRectangle width="160" height="40" as="alternateBounds" />
          </mxGeometry>
        </mxCell>
        <mxCell id="fOyBpGXJ5a-ghSul3GZQ-22" value="" style="shape=partialRectangle;collapsible=0;dropTarget=0;pointerEvents=0;fillColor=none;top=0;left=0;bottom=0;right=0;points=[[0,0.5],[1,0.5]];portConstraint=eastwest;" vertex="1" parent="fOyBpGXJ5a-ghSul3GZQ-3">
          <mxGeometry y="360" width="160" height="40" as="geometry" />
        </mxCell>
        <mxCell id="fOyBpGXJ5a-ghSul3GZQ-23" value="" style="shape=partialRectangle;html=1;whiteSpace=wrap;connectable=0;overflow=hidden;fillColor=none;top=0;left=0;bottom=0;right=0;pointerEvents=1;" vertex="1" parent="fOyBpGXJ5a-ghSul3GZQ-22">
          <mxGeometry width="160" height="40" as="geometry">
            <mxRectangle width="160" height="40" as="alternateBounds" />
          </mxGeometry>
        </mxCell>
        <mxCell id="fOyBpGXJ5a-ghSul3GZQ-25" value="高地址" style="text;html=1;align=center;verticalAlign=middle;resizable=0;points=[];autosize=1;strokeColor=none;fillColor=none;" vertex="1" parent="fOyBpGXJ5a-ghSul3GZQ-58">
          <mxGeometry x="50" width="50" height="20" as="geometry" />
        </mxCell>
        <mxCell id="fOyBpGXJ5a-ghSul3GZQ-26" value="低地址" style="text;html=1;align=center;verticalAlign=middle;resizable=0;points=[];autosize=1;strokeColor=none;fillColor=none;" vertex="1" parent="fOyBpGXJ5a-ghSul3GZQ-58">
          <mxGeometry x="50" y="400" width="50" height="20" as="geometry" />
        </mxCell>
        <mxCell id="fOyBpGXJ5a-ghSul3GZQ-27" value="" style="endArrow=none;html=1;strokeWidth=1;dashed=1;" edge="1" parent="fOyBpGXJ5a-ghSul3GZQ-58">
          <mxGeometry width="50" height="50" relative="1" as="geometry">
            <mxPoint x="50" y="20" as="sourcePoint" />
            <mxPoint x="110" y="20" as="targetPoint" />
          </mxGeometry>
        </mxCell>
        <mxCell id="fOyBpGXJ5a-ghSul3GZQ-28" value="" style="endArrow=classic;html=1;dashed=1;strokeWidth=1;" edge="1" parent="fOyBpGXJ5a-ghSul3GZQ-58">
          <mxGeometry width="50" height="50" relative="1" as="geometry">
            <mxPoint x="80" y="20" as="sourcePoint" />
            <mxPoint x="80" y="70" as="targetPoint" />
          </mxGeometry>
        </mxCell>
        <mxCell id="fOyBpGXJ5a-ghSul3GZQ-29" value="栈拓展方向" style="text;html=1;align=center;verticalAlign=middle;resizable=0;points=[];autosize=1;strokeColor=none;fillColor=none;" vertex="1" parent="fOyBpGXJ5a-ghSul3GZQ-58">
          <mxGeometry y="30" width="80" height="20" as="geometry" />
        </mxCell>
        <mxCell id="fOyBpGXJ5a-ghSul3GZQ-30" value="call 指令压入函&lt;br&gt;数返回地址" style="shape=callout;whiteSpace=wrap;html=1;perimeter=calloutPerimeter;position2=0;base=10;size=25;position=0.08;rotation=0;" vertex="1" parent="fOyBpGXJ5a-ghSul3GZQ-58">
          <mxGeometry x="290" y="60" width="150" height="70" as="geometry" />
        </mxCell>
        <mxCell id="fOyBpGXJ5a-ghSul3GZQ-60" value="" style="endArrow=classic;html=1;strokeWidth=1;" edge="1" parent="fOyBpGXJ5a-ghSul3GZQ-58">
          <mxGeometry width="50" height="50" relative="1" as="geometry">
            <mxPoint x="50" y="140" as="sourcePoint" />
            <mxPoint x="110" y="140" as="targetPoint" />
          </mxGeometry>
        </mxCell>
        <mxCell id="fOyBpGXJ5a-ghSul3GZQ-61" value="esp" style="text;html=1;align=center;verticalAlign=middle;resizable=0;points=[];autosize=1;strokeColor=none;fillColor=none;" vertex="1" parent="fOyBpGXJ5a-ghSul3GZQ-58">
          <mxGeometry x="60" y="120" width="30" height="20" as="geometry" />
        </mxCell>
        <mxCell id="fOyBpGXJ5a-ghSul3GZQ-59" value="" style="group" vertex="1" connectable="0" parent="fOyBpGXJ5a-ghSul3GZQ-1">
          <mxGeometry x="480" y="100" width="280" height="420" as="geometry" />
        </mxCell>
        <mxCell id="fOyBpGXJ5a-ghSul3GZQ-31" value="" style="shape=table;startSize=0;container=1;collapsible=0;childLayout=tableLayout;" vertex="1" parent="fOyBpGXJ5a-ghSul3GZQ-59">
          <mxGeometry x="120" y="20" width="160" height="400" as="geometry" />
        </mxCell>
        <mxCell id="fOyBpGXJ5a-ghSul3GZQ-32" value="" style="shape=partialRectangle;collapsible=0;dropTarget=0;pointerEvents=0;fillColor=none;top=0;left=0;bottom=0;right=0;points=[[0,0.5],[1,0.5]];portConstraint=eastwest;" vertex="1" parent="fOyBpGXJ5a-ghSul3GZQ-31">
          <mxGeometry width="160" height="40" as="geometry" />
        </mxCell>
        <mxCell id="fOyBpGXJ5a-ghSul3GZQ-33" value="参数2" style="shape=partialRectangle;html=1;whiteSpace=wrap;connectable=0;overflow=hidden;fillColor=none;top=0;left=0;bottom=0;right=0;pointerEvents=1;" vertex="1" parent="fOyBpGXJ5a-ghSul3GZQ-32">
          <mxGeometry width="160" height="40" as="geometry">
            <mxRectangle width="160" height="40" as="alternateBounds" />
          </mxGeometry>
        </mxCell>
        <mxCell id="fOyBpGXJ5a-ghSul3GZQ-34" value="" style="shape=partialRectangle;collapsible=0;dropTarget=0;pointerEvents=0;fillColor=none;top=0;left=0;bottom=0;right=0;points=[[0,0.5],[1,0.5]];portConstraint=eastwest;" vertex="1" parent="fOyBpGXJ5a-ghSul3GZQ-31">
          <mxGeometry y="40" width="160" height="40" as="geometry" />
        </mxCell>
        <mxCell id="fOyBpGXJ5a-ghSul3GZQ-35" value="参数1" style="shape=partialRectangle;html=1;whiteSpace=wrap;connectable=0;overflow=hidden;fillColor=none;top=0;left=0;bottom=0;right=0;pointerEvents=1;" vertex="1" parent="fOyBpGXJ5a-ghSul3GZQ-34">
          <mxGeometry width="160" height="40" as="geometry">
            <mxRectangle width="160" height="40" as="alternateBounds" />
          </mxGeometry>
        </mxCell>
        <mxCell id="fOyBpGXJ5a-ghSul3GZQ-36" value="" style="shape=partialRectangle;collapsible=0;dropTarget=0;pointerEvents=0;fillColor=none;top=0;left=0;bottom=0;right=0;points=[[0,0.5],[1,0.5]];portConstraint=eastwest;" vertex="1" parent="fOyBpGXJ5a-ghSul3GZQ-31">
          <mxGeometry y="80" width="160" height="40" as="geometry" />
        </mxCell>
        <mxCell id="fOyBpGXJ5a-ghSul3GZQ-37" value="函数返回地址" style="shape=partialRectangle;html=1;whiteSpace=wrap;connectable=0;overflow=hidden;fillColor=none;top=0;left=0;bottom=0;right=0;pointerEvents=1;" vertex="1" parent="fOyBpGXJ5a-ghSul3GZQ-36">
          <mxGeometry width="160" height="40" as="geometry">
            <mxRectangle width="160" height="40" as="alternateBounds" />
          </mxGeometry>
        </mxCell>
        <mxCell id="fOyBpGXJ5a-ghSul3GZQ-38" value="" style="shape=partialRectangle;collapsible=0;dropTarget=0;pointerEvents=0;fillColor=none;top=0;left=0;bottom=0;right=0;points=[[0,0.5],[1,0.5]];portConstraint=eastwest;" vertex="1" parent="fOyBpGXJ5a-ghSul3GZQ-31">
          <mxGeometry y="120" width="160" height="40" as="geometry" />
        </mxCell>
        <mxCell id="fOyBpGXJ5a-ghSul3GZQ-39" value="ebp" style="shape=partialRectangle;html=1;whiteSpace=wrap;connectable=0;overflow=hidden;fillColor=none;top=0;left=0;bottom=0;right=0;pointerEvents=1;" vertex="1" parent="fOyBpGXJ5a-ghSul3GZQ-38">
          <mxGeometry width="160" height="40" as="geometry">
            <mxRectangle width="160" height="40" as="alternateBounds" />
          </mxGeometry>
        </mxCell>
        <mxCell id="fOyBpGXJ5a-ghSul3GZQ-40" value="" style="shape=partialRectangle;collapsible=0;dropTarget=0;pointerEvents=0;fillColor=none;top=0;left=0;bottom=0;right=0;points=[[0,0.5],[1,0.5]];portConstraint=eastwest;" vertex="1" parent="fOyBpGXJ5a-ghSul3GZQ-31">
          <mxGeometry y="160" width="160" height="40" as="geometry" />
        </mxCell>
        <mxCell id="fOyBpGXJ5a-ghSul3GZQ-41" value="" style="shape=partialRectangle;html=1;whiteSpace=wrap;connectable=0;overflow=hidden;fillColor=none;top=0;left=0;bottom=0;right=0;pointerEvents=1;" vertex="1" parent="fOyBpGXJ5a-ghSul3GZQ-40">
          <mxGeometry width="160" height="40" as="geometry">
            <mxRectangle width="160" height="40" as="alternateBounds" />
          </mxGeometry>
        </mxCell>
        <mxCell id="fOyBpGXJ5a-ghSul3GZQ-42" value="" style="shape=partialRectangle;collapsible=0;dropTarget=0;pointerEvents=0;fillColor=none;top=0;left=0;bottom=0;right=0;points=[[0,0.5],[1,0.5]];portConstraint=eastwest;" vertex="1" parent="fOyBpGXJ5a-ghSul3GZQ-31">
          <mxGeometry y="200" width="160" height="40" as="geometry" />
        </mxCell>
        <mxCell id="fOyBpGXJ5a-ghSul3GZQ-43" value="" style="shape=partialRectangle;html=1;whiteSpace=wrap;connectable=0;overflow=hidden;fillColor=none;top=0;left=0;bottom=0;right=0;pointerEvents=1;" vertex="1" parent="fOyBpGXJ5a-ghSul3GZQ-42">
          <mxGeometry width="160" height="40" as="geometry">
            <mxRectangle width="160" height="40" as="alternateBounds" />
          </mxGeometry>
        </mxCell>
        <mxCell id="fOyBpGXJ5a-ghSul3GZQ-44" value="" style="shape=partialRectangle;collapsible=0;dropTarget=0;pointerEvents=0;fillColor=none;top=0;left=0;bottom=0;right=0;points=[[0,0.5],[1,0.5]];portConstraint=eastwest;" vertex="1" parent="fOyBpGXJ5a-ghSul3GZQ-31">
          <mxGeometry y="240" width="160" height="40" as="geometry" />
        </mxCell>
        <mxCell id="fOyBpGXJ5a-ghSul3GZQ-45" value="" style="shape=partialRectangle;html=1;whiteSpace=wrap;connectable=0;overflow=hidden;fillColor=none;top=0;left=0;bottom=0;right=0;pointerEvents=1;" vertex="1" parent="fOyBpGXJ5a-ghSul3GZQ-44">
          <mxGeometry width="160" height="40" as="geometry">
            <mxRectangle width="160" height="40" as="alternateBounds" />
          </mxGeometry>
        </mxCell>
        <mxCell id="fOyBpGXJ5a-ghSul3GZQ-46" value="" style="shape=partialRectangle;collapsible=0;dropTarget=0;pointerEvents=0;fillColor=none;top=0;left=0;bottom=0;right=0;points=[[0,0.5],[1,0.5]];portConstraint=eastwest;" vertex="1" parent="fOyBpGXJ5a-ghSul3GZQ-31">
          <mxGeometry y="280" width="160" height="40" as="geometry" />
        </mxCell>
        <mxCell id="fOyBpGXJ5a-ghSul3GZQ-47" value="" style="shape=partialRectangle;html=1;whiteSpace=wrap;connectable=0;overflow=hidden;fillColor=none;top=0;left=0;bottom=0;right=0;pointerEvents=1;" vertex="1" parent="fOyBpGXJ5a-ghSul3GZQ-46">
          <mxGeometry width="160" height="40" as="geometry">
            <mxRectangle width="160" height="40" as="alternateBounds" />
          </mxGeometry>
        </mxCell>
        <mxCell id="fOyBpGXJ5a-ghSul3GZQ-48" value="" style="shape=partialRectangle;collapsible=0;dropTarget=0;pointerEvents=0;fillColor=none;top=0;left=0;bottom=0;right=0;points=[[0,0.5],[1,0.5]];portConstraint=eastwest;" vertex="1" parent="fOyBpGXJ5a-ghSul3GZQ-31">
          <mxGeometry y="320" width="160" height="40" as="geometry" />
        </mxCell>
        <mxCell id="fOyBpGXJ5a-ghSul3GZQ-49" value="" style="shape=partialRectangle;html=1;whiteSpace=wrap;connectable=0;overflow=hidden;fillColor=none;top=0;left=0;bottom=0;right=0;pointerEvents=1;" vertex="1" parent="fOyBpGXJ5a-ghSul3GZQ-48">
          <mxGeometry width="160" height="40" as="geometry">
            <mxRectangle width="160" height="40" as="alternateBounds" />
          </mxGeometry>
        </mxCell>
        <mxCell id="fOyBpGXJ5a-ghSul3GZQ-50" value="" style="shape=partialRectangle;collapsible=0;dropTarget=0;pointerEvents=0;fillColor=none;top=0;left=0;bottom=0;right=0;points=[[0,0.5],[1,0.5]];portConstraint=eastwest;" vertex="1" parent="fOyBpGXJ5a-ghSul3GZQ-31">
          <mxGeometry y="360" width="160" height="40" as="geometry" />
        </mxCell>
        <mxCell id="fOyBpGXJ5a-ghSul3GZQ-51" value="" style="shape=partialRectangle;html=1;whiteSpace=wrap;connectable=0;overflow=hidden;fillColor=none;top=0;left=0;bottom=0;right=0;pointerEvents=1;" vertex="1" parent="fOyBpGXJ5a-ghSul3GZQ-50">
          <mxGeometry width="160" height="40" as="geometry">
            <mxRectangle width="160" height="40" as="alternateBounds" />
          </mxGeometry>
        </mxCell>
        <mxCell id="fOyBpGXJ5a-ghSul3GZQ-52" value="高地址" style="text;html=1;align=center;verticalAlign=middle;resizable=0;points=[];autosize=1;strokeColor=none;fillColor=none;" vertex="1" parent="fOyBpGXJ5a-ghSul3GZQ-59">
          <mxGeometry x="70" width="50" height="20" as="geometry" />
        </mxCell>
        <mxCell id="fOyBpGXJ5a-ghSul3GZQ-53" value="低地址" style="text;html=1;align=center;verticalAlign=middle;resizable=0;points=[];autosize=1;strokeColor=none;fillColor=none;" vertex="1" parent="fOyBpGXJ5a-ghSul3GZQ-59">
          <mxGeometry x="70" y="400" width="50" height="20" as="geometry" />
        </mxCell>
        <mxCell id="fOyBpGXJ5a-ghSul3GZQ-54" value="" style="endArrow=none;html=1;strokeWidth=1;dashed=1;" edge="1" parent="fOyBpGXJ5a-ghSul3GZQ-59">
          <mxGeometry width="50" height="50" relative="1" as="geometry">
            <mxPoint x="50" y="20" as="sourcePoint" />
            <mxPoint x="110" y="20" as="targetPoint" />
          </mxGeometry>
        </mxCell>
        <mxCell id="fOyBpGXJ5a-ghSul3GZQ-55" value="" style="endArrow=classic;html=1;dashed=1;strokeWidth=1;" edge="1" parent="fOyBpGXJ5a-ghSul3GZQ-59">
          <mxGeometry width="50" height="50" relative="1" as="geometry">
            <mxPoint x="80" y="20" as="sourcePoint" />
            <mxPoint x="80" y="70" as="targetPoint" />
          </mxGeometry>
        </mxCell>
        <mxCell id="fOyBpGXJ5a-ghSul3GZQ-56" value="栈拓展方向" style="text;html=1;align=center;verticalAlign=middle;resizable=0;points=[];autosize=1;strokeColor=none;fillColor=none;" vertex="1" parent="fOyBpGXJ5a-ghSul3GZQ-59">
          <mxGeometry y="30" width="80" height="20" as="geometry" />
        </mxCell>
        <mxCell id="fOyBpGXJ5a-ghSul3GZQ-66" value="" style="group" vertex="1" connectable="0" parent="fOyBpGXJ5a-ghSul3GZQ-59">
          <mxGeometry x="20" y="160" width="90" height="20" as="geometry" />
        </mxCell>
        <mxCell id="fOyBpGXJ5a-ghSul3GZQ-64" value="" style="endArrow=classic;html=1;strokeWidth=1;" edge="1" parent="fOyBpGXJ5a-ghSul3GZQ-66">
          <mxGeometry width="50" height="50" relative="1" as="geometry">
            <mxPoint y="20" as="sourcePoint" />
            <mxPoint x="83.07692307692308" y="20" as="targetPoint" />
          </mxGeometry>
        </mxCell>
        <mxCell id="fOyBpGXJ5a-ghSul3GZQ-65" value="esp、ebp" style="text;html=1;align=center;verticalAlign=middle;resizable=0;points=[];autosize=1;strokeColor=none;fillColor=none;" vertex="1" parent="fOyBpGXJ5a-ghSul3GZQ-66">
          <mxGeometry x="-0.0043269230769230616" width="70" height="20" as="geometry" />
        </mxCell>
        <mxCell id="fOyBpGXJ5a-ghSul3GZQ-67" value="" style="group" vertex="1" connectable="0" parent="fOyBpGXJ5a-ghSul3GZQ-1">
          <mxGeometry x="40" y="700" width="280" height="420" as="geometry" />
        </mxCell>
        <mxCell id="fOyBpGXJ5a-ghSul3GZQ-68" value="" style="shape=table;startSize=0;container=1;collapsible=0;childLayout=tableLayout;" vertex="1" parent="fOyBpGXJ5a-ghSul3GZQ-67">
          <mxGeometry x="120" y="20" width="160" height="400" as="geometry" />
        </mxCell>
        <mxCell id="fOyBpGXJ5a-ghSul3GZQ-69" value="" style="shape=partialRectangle;collapsible=0;dropTarget=0;pointerEvents=0;fillColor=none;top=0;left=0;bottom=0;right=0;points=[[0,0.5],[1,0.5]];portConstraint=eastwest;" vertex="1" parent="fOyBpGXJ5a-ghSul3GZQ-68">
          <mxGeometry width="160" height="40" as="geometry" />
        </mxCell>
        <mxCell id="fOyBpGXJ5a-ghSul3GZQ-70" value="参数2" style="shape=partialRectangle;html=1;whiteSpace=wrap;connectable=0;overflow=hidden;fillColor=none;top=0;left=0;bottom=0;right=0;pointerEvents=1;" vertex="1" parent="fOyBpGXJ5a-ghSul3GZQ-69">
          <mxGeometry width="160" height="40" as="geometry">
            <mxRectangle width="160" height="40" as="alternateBounds" />
          </mxGeometry>
        </mxCell>
        <mxCell id="fOyBpGXJ5a-ghSul3GZQ-71" value="" style="shape=partialRectangle;collapsible=0;dropTarget=0;pointerEvents=0;fillColor=none;top=0;left=0;bottom=0;right=0;points=[[0,0.5],[1,0.5]];portConstraint=eastwest;" vertex="1" parent="fOyBpGXJ5a-ghSul3GZQ-68">
          <mxGeometry y="40" width="160" height="40" as="geometry" />
        </mxCell>
        <mxCell id="fOyBpGXJ5a-ghSul3GZQ-72" value="参数1" style="shape=partialRectangle;html=1;whiteSpace=wrap;connectable=0;overflow=hidden;fillColor=none;top=0;left=0;bottom=0;right=0;pointerEvents=1;" vertex="1" parent="fOyBpGXJ5a-ghSul3GZQ-71">
          <mxGeometry width="160" height="40" as="geometry">
            <mxRectangle width="160" height="40" as="alternateBounds" />
          </mxGeometry>
        </mxCell>
        <mxCell id="fOyBpGXJ5a-ghSul3GZQ-73" value="" style="shape=partialRectangle;collapsible=0;dropTarget=0;pointerEvents=0;fillColor=none;top=0;left=0;bottom=0;right=0;points=[[0,0.5],[1,0.5]];portConstraint=eastwest;" vertex="1" parent="fOyBpGXJ5a-ghSul3GZQ-68">
          <mxGeometry y="80" width="160" height="40" as="geometry" />
        </mxCell>
        <mxCell id="fOyBpGXJ5a-ghSul3GZQ-74" value="函数返回地址" style="shape=partialRectangle;html=1;whiteSpace=wrap;connectable=0;overflow=hidden;fillColor=none;top=0;left=0;bottom=0;right=0;pointerEvents=1;" vertex="1" parent="fOyBpGXJ5a-ghSul3GZQ-73">
          <mxGeometry width="160" height="40" as="geometry">
            <mxRectangle width="160" height="40" as="alternateBounds" />
          </mxGeometry>
        </mxCell>
        <mxCell id="fOyBpGXJ5a-ghSul3GZQ-75" value="" style="shape=partialRectangle;collapsible=0;dropTarget=0;pointerEvents=0;fillColor=none;top=0;left=0;bottom=0;right=0;points=[[0,0.5],[1,0.5]];portConstraint=eastwest;" vertex="1" parent="fOyBpGXJ5a-ghSul3GZQ-68">
          <mxGeometry y="120" width="160" height="40" as="geometry" />
        </mxCell>
        <mxCell id="fOyBpGXJ5a-ghSul3GZQ-76" value="ebp" style="shape=partialRectangle;html=1;whiteSpace=wrap;connectable=0;overflow=hidden;fillColor=none;top=0;left=0;bottom=0;right=0;pointerEvents=1;" vertex="1" parent="fOyBpGXJ5a-ghSul3GZQ-75">
          <mxGeometry width="160" height="40" as="geometry">
            <mxRectangle width="160" height="40" as="alternateBounds" />
          </mxGeometry>
        </mxCell>
        <mxCell id="fOyBpGXJ5a-ghSul3GZQ-77" value="" style="shape=partialRectangle;collapsible=0;dropTarget=0;pointerEvents=0;fillColor=none;top=0;left=0;bottom=0;right=0;points=[[0,0.5],[1,0.5]];portConstraint=eastwest;" vertex="1" parent="fOyBpGXJ5a-ghSul3GZQ-68">
          <mxGeometry y="160" width="160" height="40" as="geometry" />
        </mxCell>
        <mxCell id="fOyBpGXJ5a-ghSul3GZQ-78" value="..." style="shape=partialRectangle;html=1;whiteSpace=wrap;connectable=0;overflow=hidden;fillColor=none;top=0;left=0;bottom=0;right=0;pointerEvents=1;" vertex="1" parent="fOyBpGXJ5a-ghSul3GZQ-77">
          <mxGeometry width="160" height="40" as="geometry">
            <mxRectangle width="160" height="40" as="alternateBounds" />
          </mxGeometry>
        </mxCell>
        <mxCell id="fOyBpGXJ5a-ghSul3GZQ-79" value="" style="shape=partialRectangle;collapsible=0;dropTarget=0;pointerEvents=0;fillColor=none;top=0;left=0;bottom=0;right=0;points=[[0,0.5],[1,0.5]];portConstraint=eastwest;" vertex="1" parent="fOyBpGXJ5a-ghSul3GZQ-68">
          <mxGeometry y="200" width="160" height="40" as="geometry" />
        </mxCell>
        <mxCell id="fOyBpGXJ5a-ghSul3GZQ-80" value="..." style="shape=partialRectangle;html=1;whiteSpace=wrap;connectable=0;overflow=hidden;fillColor=none;top=0;left=0;bottom=0;right=0;pointerEvents=1;" vertex="1" parent="fOyBpGXJ5a-ghSul3GZQ-79">
          <mxGeometry width="160" height="40" as="geometry">
            <mxRectangle width="160" height="40" as="alternateBounds" />
          </mxGeometry>
        </mxCell>
        <mxCell id="fOyBpGXJ5a-ghSul3GZQ-81" value="" style="shape=partialRectangle;collapsible=0;dropTarget=0;pointerEvents=0;fillColor=none;top=0;left=0;bottom=0;right=0;points=[[0,0.5],[1,0.5]];portConstraint=eastwest;" vertex="1" parent="fOyBpGXJ5a-ghSul3GZQ-68">
          <mxGeometry y="240" width="160" height="40" as="geometry" />
        </mxCell>
        <mxCell id="fOyBpGXJ5a-ghSul3GZQ-82" value="..." style="shape=partialRectangle;html=1;whiteSpace=wrap;connectable=0;overflow=hidden;fillColor=none;top=0;left=0;bottom=0;right=0;pointerEvents=1;" vertex="1" parent="fOyBpGXJ5a-ghSul3GZQ-81">
          <mxGeometry width="160" height="40" as="geometry">
            <mxRectangle width="160" height="40" as="alternateBounds" />
          </mxGeometry>
        </mxCell>
        <mxCell id="fOyBpGXJ5a-ghSul3GZQ-83" value="" style="shape=partialRectangle;collapsible=0;dropTarget=0;pointerEvents=0;fillColor=none;top=0;left=0;bottom=0;right=0;points=[[0,0.5],[1,0.5]];portConstraint=eastwest;" vertex="1" parent="fOyBpGXJ5a-ghSul3GZQ-68">
          <mxGeometry y="280" width="160" height="40" as="geometry" />
        </mxCell>
        <mxCell id="fOyBpGXJ5a-ghSul3GZQ-84" value="..." style="shape=partialRectangle;html=1;whiteSpace=wrap;connectable=0;overflow=hidden;fillColor=none;top=0;left=0;bottom=0;right=0;pointerEvents=1;" vertex="1" parent="fOyBpGXJ5a-ghSul3GZQ-83">
          <mxGeometry width="160" height="40" as="geometry">
            <mxRectangle width="160" height="40" as="alternateBounds" />
          </mxGeometry>
        </mxCell>
        <mxCell id="fOyBpGXJ5a-ghSul3GZQ-85" value="" style="shape=partialRectangle;collapsible=0;dropTarget=0;pointerEvents=0;fillColor=none;top=0;left=0;bottom=0;right=0;points=[[0,0.5],[1,0.5]];portConstraint=eastwest;" vertex="1" parent="fOyBpGXJ5a-ghSul3GZQ-68">
          <mxGeometry y="320" width="160" height="40" as="geometry" />
        </mxCell>
        <mxCell id="fOyBpGXJ5a-ghSul3GZQ-86" value="" style="shape=partialRectangle;html=1;whiteSpace=wrap;connectable=0;overflow=hidden;fillColor=none;top=0;left=0;bottom=0;right=0;pointerEvents=1;" vertex="1" parent="fOyBpGXJ5a-ghSul3GZQ-85">
          <mxGeometry width="160" height="40" as="geometry">
            <mxRectangle width="160" height="40" as="alternateBounds" />
          </mxGeometry>
        </mxCell>
        <mxCell id="fOyBpGXJ5a-ghSul3GZQ-87" value="" style="shape=partialRectangle;collapsible=0;dropTarget=0;pointerEvents=0;fillColor=none;top=0;left=0;bottom=0;right=0;points=[[0,0.5],[1,0.5]];portConstraint=eastwest;" vertex="1" parent="fOyBpGXJ5a-ghSul3GZQ-68">
          <mxGeometry y="360" width="160" height="40" as="geometry" />
        </mxCell>
        <mxCell id="fOyBpGXJ5a-ghSul3GZQ-88" value="" style="shape=partialRectangle;html=1;whiteSpace=wrap;connectable=0;overflow=hidden;fillColor=none;top=0;left=0;bottom=0;right=0;pointerEvents=1;" vertex="1" parent="fOyBpGXJ5a-ghSul3GZQ-87">
          <mxGeometry width="160" height="40" as="geometry">
            <mxRectangle width="160" height="40" as="alternateBounds" />
          </mxGeometry>
        </mxCell>
        <mxCell id="fOyBpGXJ5a-ghSul3GZQ-89" value="高地址" style="text;html=1;align=center;verticalAlign=middle;resizable=0;points=[];autosize=1;strokeColor=none;fillColor=none;" vertex="1" parent="fOyBpGXJ5a-ghSul3GZQ-67">
          <mxGeometry x="70" width="50" height="20" as="geometry" />
        </mxCell>
        <mxCell id="fOyBpGXJ5a-ghSul3GZQ-90" value="低地址" style="text;html=1;align=center;verticalAlign=middle;resizable=0;points=[];autosize=1;strokeColor=none;fillColor=none;" vertex="1" parent="fOyBpGXJ5a-ghSul3GZQ-67">
          <mxGeometry x="70" y="400" width="50" height="20" as="geometry" />
        </mxCell>
        <mxCell id="fOyBpGXJ5a-ghSul3GZQ-91" value="" style="endArrow=none;html=1;strokeWidth=1;dashed=1;" edge="1" parent="fOyBpGXJ5a-ghSul3GZQ-67">
          <mxGeometry width="50" height="50" relative="1" as="geometry">
            <mxPoint x="50" y="20" as="sourcePoint" />
            <mxPoint x="110" y="20" as="targetPoint" />
          </mxGeometry>
        </mxCell>
        <mxCell id="fOyBpGXJ5a-ghSul3GZQ-92" value="" style="endArrow=classic;html=1;dashed=1;strokeWidth=1;" edge="1" parent="fOyBpGXJ5a-ghSul3GZQ-67">
          <mxGeometry width="50" height="50" relative="1" as="geometry">
            <mxPoint x="80" y="20" as="sourcePoint" />
            <mxPoint x="80" y="70" as="targetPoint" />
          </mxGeometry>
        </mxCell>
        <mxCell id="fOyBpGXJ5a-ghSul3GZQ-93" value="栈拓展方向" style="text;html=1;align=center;verticalAlign=middle;resizable=0;points=[];autosize=1;strokeColor=none;fillColor=none;" vertex="1" parent="fOyBpGXJ5a-ghSul3GZQ-67">
          <mxGeometry y="30" width="80" height="20" as="geometry" />
        </mxCell>
        <mxCell id="fOyBpGXJ5a-ghSul3GZQ-94" value="" style="group" vertex="1" connectable="0" parent="fOyBpGXJ5a-ghSul3GZQ-67">
          <mxGeometry x="50" y="320" width="60" height="20.000000000000114" as="geometry" />
        </mxCell>
        <mxCell id="fOyBpGXJ5a-ghSul3GZQ-95" value="" style="endArrow=classic;html=1;strokeWidth=1;" edge="1" parent="fOyBpGXJ5a-ghSul3GZQ-94">
          <mxGeometry width="50" height="50" relative="1" as="geometry">
            <mxPoint y="20.000000000000114" as="sourcePoint" />
            <mxPoint x="60" y="20.000000000000114" as="targetPoint" />
          </mxGeometry>
        </mxCell>
        <mxCell id="fOyBpGXJ5a-ghSul3GZQ-96" value="esp" style="text;html=1;align=center;verticalAlign=middle;resizable=0;points=[];autosize=1;strokeColor=none;fillColor=none;" vertex="1" parent="fOyBpGXJ5a-ghSul3GZQ-94">
          <mxGeometry x="15" width="30" height="20" as="geometry" />
        </mxCell>
        <mxCell id="fOyBpGXJ5a-ghSul3GZQ-127" value="" style="group" vertex="1" connectable="0" parent="fOyBpGXJ5a-ghSul3GZQ-67">
          <mxGeometry x="50" y="160" width="60" height="20.000000000000114" as="geometry" />
        </mxCell>
        <mxCell id="fOyBpGXJ5a-ghSul3GZQ-128" value="" style="endArrow=classic;html=1;strokeWidth=1;" edge="1" parent="fOyBpGXJ5a-ghSul3GZQ-127">
          <mxGeometry width="50" height="50" relative="1" as="geometry">
            <mxPoint y="20.000000000000114" as="sourcePoint" />
            <mxPoint x="60" y="20.000000000000114" as="targetPoint" />
          </mxGeometry>
        </mxCell>
        <mxCell id="fOyBpGXJ5a-ghSul3GZQ-129" value="ebp" style="text;html=1;align=center;verticalAlign=middle;resizable=0;points=[];autosize=1;strokeColor=none;fillColor=none;" vertex="1" parent="fOyBpGXJ5a-ghSul3GZQ-127">
          <mxGeometry x="10" width="40" height="20" as="geometry" />
        </mxCell>
        <mxCell id="fOyBpGXJ5a-ghSul3GZQ-97" value="" style="group" vertex="1" connectable="0" parent="fOyBpGXJ5a-ghSul3GZQ-1">
          <mxGeometry x="480" y="700" width="280" height="420" as="geometry" />
        </mxCell>
        <mxCell id="fOyBpGXJ5a-ghSul3GZQ-98" value="" style="shape=table;startSize=0;container=1;collapsible=0;childLayout=tableLayout;" vertex="1" parent="fOyBpGXJ5a-ghSul3GZQ-97">
          <mxGeometry x="120" y="20" width="160" height="400" as="geometry" />
        </mxCell>
        <mxCell id="fOyBpGXJ5a-ghSul3GZQ-99" value="" style="shape=partialRectangle;collapsible=0;dropTarget=0;pointerEvents=0;fillColor=none;top=0;left=0;bottom=0;right=0;points=[[0,0.5],[1,0.5]];portConstraint=eastwest;" vertex="1" parent="fOyBpGXJ5a-ghSul3GZQ-98">
          <mxGeometry width="160" height="40" as="geometry" />
        </mxCell>
        <mxCell id="fOyBpGXJ5a-ghSul3GZQ-100" value="参数2" style="shape=partialRectangle;html=1;whiteSpace=wrap;connectable=0;overflow=hidden;fillColor=none;top=0;left=0;bottom=0;right=0;pointerEvents=1;" vertex="1" parent="fOyBpGXJ5a-ghSul3GZQ-99">
          <mxGeometry width="160" height="40" as="geometry">
            <mxRectangle width="160" height="40" as="alternateBounds" />
          </mxGeometry>
        </mxCell>
        <mxCell id="fOyBpGXJ5a-ghSul3GZQ-101" value="" style="shape=partialRectangle;collapsible=0;dropTarget=0;pointerEvents=0;fillColor=none;top=0;left=0;bottom=0;right=0;points=[[0,0.5],[1,0.5]];portConstraint=eastwest;" vertex="1" parent="fOyBpGXJ5a-ghSul3GZQ-98">
          <mxGeometry y="40" width="160" height="40" as="geometry" />
        </mxCell>
        <mxCell id="fOyBpGXJ5a-ghSul3GZQ-102" value="参数1" style="shape=partialRectangle;html=1;whiteSpace=wrap;connectable=0;overflow=hidden;fillColor=none;top=0;left=0;bottom=0;right=0;pointerEvents=1;" vertex="1" parent="fOyBpGXJ5a-ghSul3GZQ-101">
          <mxGeometry width="160" height="40" as="geometry">
            <mxRectangle width="160" height="40" as="alternateBounds" />
          </mxGeometry>
        </mxCell>
        <mxCell id="fOyBpGXJ5a-ghSul3GZQ-103" value="" style="shape=partialRectangle;collapsible=0;dropTarget=0;pointerEvents=0;fillColor=none;top=0;left=0;bottom=0;right=0;points=[[0,0.5],[1,0.5]];portConstraint=eastwest;" vertex="1" parent="fOyBpGXJ5a-ghSul3GZQ-98">
          <mxGeometry y="80" width="160" height="40" as="geometry" />
        </mxCell>
        <mxCell id="fOyBpGXJ5a-ghSul3GZQ-104" value="函数返回地址" style="shape=partialRectangle;html=1;whiteSpace=wrap;connectable=0;overflow=hidden;fillColor=none;top=0;left=0;bottom=0;right=0;pointerEvents=1;" vertex="1" parent="fOyBpGXJ5a-ghSul3GZQ-103">
          <mxGeometry width="160" height="40" as="geometry">
            <mxRectangle width="160" height="40" as="alternateBounds" />
          </mxGeometry>
        </mxCell>
        <mxCell id="fOyBpGXJ5a-ghSul3GZQ-105" value="" style="shape=partialRectangle;collapsible=0;dropTarget=0;pointerEvents=0;fillColor=none;top=0;left=0;bottom=0;right=0;points=[[0,0.5],[1,0.5]];portConstraint=eastwest;" vertex="1" parent="fOyBpGXJ5a-ghSul3GZQ-98">
          <mxGeometry y="120" width="160" height="40" as="geometry" />
        </mxCell>
        <mxCell id="fOyBpGXJ5a-ghSul3GZQ-106" value="ebp" style="shape=partialRectangle;html=1;whiteSpace=wrap;connectable=0;overflow=hidden;fillColor=none;top=0;left=0;bottom=0;right=0;pointerEvents=1;" vertex="1" parent="fOyBpGXJ5a-ghSul3GZQ-105">
          <mxGeometry width="160" height="40" as="geometry">
            <mxRectangle width="160" height="40" as="alternateBounds" />
          </mxGeometry>
        </mxCell>
        <mxCell id="fOyBpGXJ5a-ghSul3GZQ-107" value="" style="shape=partialRectangle;collapsible=0;dropTarget=0;pointerEvents=0;fillColor=none;top=0;left=0;bottom=0;right=0;points=[[0,0.5],[1,0.5]];portConstraint=eastwest;" vertex="1" parent="fOyBpGXJ5a-ghSul3GZQ-98">
          <mxGeometry y="160" width="160" height="40" as="geometry" />
        </mxCell>
        <mxCell id="fOyBpGXJ5a-ghSul3GZQ-108" value="..." style="shape=partialRectangle;html=1;whiteSpace=wrap;connectable=0;overflow=hidden;fillColor=none;top=0;left=0;bottom=0;right=0;pointerEvents=1;" vertex="1" parent="fOyBpGXJ5a-ghSul3GZQ-107">
          <mxGeometry width="160" height="40" as="geometry">
            <mxRectangle width="160" height="40" as="alternateBounds" />
          </mxGeometry>
        </mxCell>
        <mxCell id="fOyBpGXJ5a-ghSul3GZQ-109" value="" style="shape=partialRectangle;collapsible=0;dropTarget=0;pointerEvents=0;fillColor=none;top=0;left=0;bottom=0;right=0;points=[[0,0.5],[1,0.5]];portConstraint=eastwest;" vertex="1" parent="fOyBpGXJ5a-ghSul3GZQ-98">
          <mxGeometry y="200" width="160" height="40" as="geometry" />
        </mxCell>
        <mxCell id="fOyBpGXJ5a-ghSul3GZQ-110" value="..." style="shape=partialRectangle;html=1;whiteSpace=wrap;connectable=0;overflow=hidden;fillColor=none;top=0;left=0;bottom=0;right=0;pointerEvents=1;" vertex="1" parent="fOyBpGXJ5a-ghSul3GZQ-109">
          <mxGeometry width="160" height="40" as="geometry">
            <mxRectangle width="160" height="40" as="alternateBounds" />
          </mxGeometry>
        </mxCell>
        <mxCell id="fOyBpGXJ5a-ghSul3GZQ-111" value="" style="shape=partialRectangle;collapsible=0;dropTarget=0;pointerEvents=0;fillColor=none;top=0;left=0;bottom=0;right=0;points=[[0,0.5],[1,0.5]];portConstraint=eastwest;" vertex="1" parent="fOyBpGXJ5a-ghSul3GZQ-98">
          <mxGeometry y="240" width="160" height="40" as="geometry" />
        </mxCell>
        <mxCell id="fOyBpGXJ5a-ghSul3GZQ-112" value="..." style="shape=partialRectangle;html=1;whiteSpace=wrap;connectable=0;overflow=hidden;fillColor=none;top=0;left=0;bottom=0;right=0;pointerEvents=1;" vertex="1" parent="fOyBpGXJ5a-ghSul3GZQ-111">
          <mxGeometry width="160" height="40" as="geometry">
            <mxRectangle width="160" height="40" as="alternateBounds" />
          </mxGeometry>
        </mxCell>
        <mxCell id="fOyBpGXJ5a-ghSul3GZQ-113" value="" style="shape=partialRectangle;collapsible=0;dropTarget=0;pointerEvents=0;fillColor=none;top=0;left=0;bottom=0;right=0;points=[[0,0.5],[1,0.5]];portConstraint=eastwest;" vertex="1" parent="fOyBpGXJ5a-ghSul3GZQ-98">
          <mxGeometry y="280" width="160" height="40" as="geometry" />
        </mxCell>
        <mxCell id="fOyBpGXJ5a-ghSul3GZQ-114" value="..." style="shape=partialRectangle;html=1;whiteSpace=wrap;connectable=0;overflow=hidden;fillColor=none;top=0;left=0;bottom=0;right=0;pointerEvents=1;" vertex="1" parent="fOyBpGXJ5a-ghSul3GZQ-113">
          <mxGeometry width="160" height="40" as="geometry">
            <mxRectangle width="160" height="40" as="alternateBounds" />
          </mxGeometry>
        </mxCell>
        <mxCell id="fOyBpGXJ5a-ghSul3GZQ-115" value="" style="shape=partialRectangle;collapsible=0;dropTarget=0;pointerEvents=0;fillColor=none;top=0;left=0;bottom=0;right=0;points=[[0,0.5],[1,0.5]];portConstraint=eastwest;" vertex="1" parent="fOyBpGXJ5a-ghSul3GZQ-98">
          <mxGeometry y="320" width="160" height="40" as="geometry" />
        </mxCell>
        <mxCell id="fOyBpGXJ5a-ghSul3GZQ-116" value="" style="shape=partialRectangle;html=1;whiteSpace=wrap;connectable=0;overflow=hidden;fillColor=none;top=0;left=0;bottom=0;right=0;pointerEvents=1;" vertex="1" parent="fOyBpGXJ5a-ghSul3GZQ-115">
          <mxGeometry width="160" height="40" as="geometry">
            <mxRectangle width="160" height="40" as="alternateBounds" />
          </mxGeometry>
        </mxCell>
        <mxCell id="fOyBpGXJ5a-ghSul3GZQ-117" value="" style="shape=partialRectangle;collapsible=0;dropTarget=0;pointerEvents=0;fillColor=none;top=0;left=0;bottom=0;right=0;points=[[0,0.5],[1,0.5]];portConstraint=eastwest;" vertex="1" parent="fOyBpGXJ5a-ghSul3GZQ-98">
          <mxGeometry y="360" width="160" height="40" as="geometry" />
        </mxCell>
        <mxCell id="fOyBpGXJ5a-ghSul3GZQ-118" value="" style="shape=partialRectangle;html=1;whiteSpace=wrap;connectable=0;overflow=hidden;fillColor=none;top=0;left=0;bottom=0;right=0;pointerEvents=1;" vertex="1" parent="fOyBpGXJ5a-ghSul3GZQ-117">
          <mxGeometry width="160" height="40" as="geometry">
            <mxRectangle width="160" height="40" as="alternateBounds" />
          </mxGeometry>
        </mxCell>
        <mxCell id="fOyBpGXJ5a-ghSul3GZQ-119" value="高地址" style="text;html=1;align=center;verticalAlign=middle;resizable=0;points=[];autosize=1;strokeColor=none;fillColor=none;" vertex="1" parent="fOyBpGXJ5a-ghSul3GZQ-97">
          <mxGeometry x="70" width="50" height="20" as="geometry" />
        </mxCell>
        <mxCell id="fOyBpGXJ5a-ghSul3GZQ-120" value="低地址" style="text;html=1;align=center;verticalAlign=middle;resizable=0;points=[];autosize=1;strokeColor=none;fillColor=none;" vertex="1" parent="fOyBpGXJ5a-ghSul3GZQ-97">
          <mxGeometry x="70" y="400" width="50" height="20" as="geometry" />
        </mxCell>
        <mxCell id="fOyBpGXJ5a-ghSul3GZQ-121" value="" style="endArrow=none;html=1;strokeWidth=1;dashed=1;" edge="1" parent="fOyBpGXJ5a-ghSul3GZQ-97">
          <mxGeometry width="50" height="50" relative="1" as="geometry">
            <mxPoint x="50" y="20" as="sourcePoint" />
            <mxPoint x="110" y="20" as="targetPoint" />
          </mxGeometry>
        </mxCell>
        <mxCell id="fOyBpGXJ5a-ghSul3GZQ-122" value="" style="endArrow=classic;html=1;dashed=1;strokeWidth=1;" edge="1" parent="fOyBpGXJ5a-ghSul3GZQ-97">
          <mxGeometry width="50" height="50" relative="1" as="geometry">
            <mxPoint x="80" y="20" as="sourcePoint" />
            <mxPoint x="80" y="70" as="targetPoint" />
          </mxGeometry>
        </mxCell>
        <mxCell id="fOyBpGXJ5a-ghSul3GZQ-123" value="栈拓展方向" style="text;html=1;align=center;verticalAlign=middle;resizable=0;points=[];autosize=1;strokeColor=none;fillColor=none;" vertex="1" parent="fOyBpGXJ5a-ghSul3GZQ-97">
          <mxGeometry y="30" width="80" height="20" as="geometry" />
        </mxCell>
        <mxCell id="fOyBpGXJ5a-ghSul3GZQ-124" value="" style="group" vertex="1" connectable="0" parent="fOyBpGXJ5a-ghSul3GZQ-97">
          <mxGeometry x="50" y="160" width="60" height="20.000000000000114" as="geometry" />
        </mxCell>
        <mxCell id="fOyBpGXJ5a-ghSul3GZQ-125" value="" style="endArrow=classic;html=1;strokeWidth=1;" edge="1" parent="fOyBpGXJ5a-ghSul3GZQ-124">
          <mxGeometry width="50" height="50" relative="1" as="geometry">
            <mxPoint y="20.000000000000114" as="sourcePoint" />
            <mxPoint x="60" y="20.000000000000114" as="targetPoint" />
          </mxGeometry>
        </mxCell>
        <mxCell id="fOyBpGXJ5a-ghSul3GZQ-126" value="esp" style="text;html=1;align=center;verticalAlign=middle;resizable=0;points=[];autosize=1;strokeColor=none;fillColor=none;" vertex="1" parent="fOyBpGXJ5a-ghSul3GZQ-124">
          <mxGeometry x="15" width="30" height="20" as="geometry" />
        </mxCell>
        <mxCell id="fOyBpGXJ5a-ghSul3GZQ-162" value="" style="group" vertex="1" connectable="0" parent="fOyBpGXJ5a-ghSul3GZQ-1">
          <mxGeometry x="40" y="1300" width="458" height="420" as="geometry" />
        </mxCell>
        <mxCell id="fOyBpGXJ5a-ghSul3GZQ-131" value="" style="group" vertex="1" connectable="0" parent="fOyBpGXJ5a-ghSul3GZQ-162">
          <mxGeometry width="280" height="420" as="geometry" />
        </mxCell>
        <mxCell id="fOyBpGXJ5a-ghSul3GZQ-132" value="" style="shape=table;startSize=0;container=1;collapsible=0;childLayout=tableLayout;" vertex="1" parent="fOyBpGXJ5a-ghSul3GZQ-131">
          <mxGeometry x="120" y="20" width="160" height="400" as="geometry" />
        </mxCell>
        <mxCell id="fOyBpGXJ5a-ghSul3GZQ-133" value="" style="shape=partialRectangle;collapsible=0;dropTarget=0;pointerEvents=0;fillColor=none;top=0;left=0;bottom=0;right=0;points=[[0,0.5],[1,0.5]];portConstraint=eastwest;" vertex="1" parent="fOyBpGXJ5a-ghSul3GZQ-132">
          <mxGeometry width="160" height="40" as="geometry" />
        </mxCell>
        <mxCell id="fOyBpGXJ5a-ghSul3GZQ-134" value="参数2" style="shape=partialRectangle;html=1;whiteSpace=wrap;connectable=0;overflow=hidden;fillColor=none;top=0;left=0;bottom=0;right=0;pointerEvents=1;" vertex="1" parent="fOyBpGXJ5a-ghSul3GZQ-133">
          <mxGeometry width="160" height="40" as="geometry">
            <mxRectangle width="160" height="40" as="alternateBounds" />
          </mxGeometry>
        </mxCell>
        <mxCell id="fOyBpGXJ5a-ghSul3GZQ-135" value="" style="shape=partialRectangle;collapsible=0;dropTarget=0;pointerEvents=0;fillColor=none;top=0;left=0;bottom=0;right=0;points=[[0,0.5],[1,0.5]];portConstraint=eastwest;" vertex="1" parent="fOyBpGXJ5a-ghSul3GZQ-132">
          <mxGeometry y="40" width="160" height="40" as="geometry" />
        </mxCell>
        <mxCell id="fOyBpGXJ5a-ghSul3GZQ-136" value="参数1" style="shape=partialRectangle;html=1;whiteSpace=wrap;connectable=0;overflow=hidden;fillColor=none;top=0;left=0;bottom=0;right=0;pointerEvents=1;" vertex="1" parent="fOyBpGXJ5a-ghSul3GZQ-135">
          <mxGeometry width="160" height="40" as="geometry">
            <mxRectangle width="160" height="40" as="alternateBounds" />
          </mxGeometry>
        </mxCell>
        <mxCell id="fOyBpGXJ5a-ghSul3GZQ-137" value="" style="shape=partialRectangle;collapsible=0;dropTarget=0;pointerEvents=0;fillColor=none;top=0;left=0;bottom=0;right=0;points=[[0,0.5],[1,0.5]];portConstraint=eastwest;" vertex="1" parent="fOyBpGXJ5a-ghSul3GZQ-132">
          <mxGeometry y="80" width="160" height="40" as="geometry" />
        </mxCell>
        <mxCell id="fOyBpGXJ5a-ghSul3GZQ-138" value="函数返回地址" style="shape=partialRectangle;html=1;whiteSpace=wrap;connectable=0;overflow=hidden;fillColor=none;top=0;left=0;bottom=0;right=0;pointerEvents=1;" vertex="1" parent="fOyBpGXJ5a-ghSul3GZQ-137">
          <mxGeometry width="160" height="40" as="geometry">
            <mxRectangle width="160" height="40" as="alternateBounds" />
          </mxGeometry>
        </mxCell>
        <mxCell id="fOyBpGXJ5a-ghSul3GZQ-139" value="" style="shape=partialRectangle;collapsible=0;dropTarget=0;pointerEvents=0;fillColor=none;top=0;left=0;bottom=0;right=0;points=[[0,0.5],[1,0.5]];portConstraint=eastwest;" vertex="1" parent="fOyBpGXJ5a-ghSul3GZQ-132">
          <mxGeometry y="120" width="160" height="40" as="geometry" />
        </mxCell>
        <mxCell id="fOyBpGXJ5a-ghSul3GZQ-140" value="ebp" style="shape=partialRectangle;html=1;whiteSpace=wrap;connectable=0;overflow=hidden;fillColor=none;top=0;left=0;bottom=0;right=0;pointerEvents=1;" vertex="1" parent="fOyBpGXJ5a-ghSul3GZQ-139">
          <mxGeometry width="160" height="40" as="geometry">
            <mxRectangle width="160" height="40" as="alternateBounds" />
          </mxGeometry>
        </mxCell>
        <mxCell id="fOyBpGXJ5a-ghSul3GZQ-141" value="" style="shape=partialRectangle;collapsible=0;dropTarget=0;pointerEvents=0;fillColor=none;top=0;left=0;bottom=0;right=0;points=[[0,0.5],[1,0.5]];portConstraint=eastwest;" vertex="1" parent="fOyBpGXJ5a-ghSul3GZQ-132">
          <mxGeometry y="160" width="160" height="40" as="geometry" />
        </mxCell>
        <mxCell id="fOyBpGXJ5a-ghSul3GZQ-142" value="..." style="shape=partialRectangle;html=1;whiteSpace=wrap;connectable=0;overflow=hidden;fillColor=none;top=0;left=0;bottom=0;right=0;pointerEvents=1;" vertex="1" parent="fOyBpGXJ5a-ghSul3GZQ-141">
          <mxGeometry width="160" height="40" as="geometry">
            <mxRectangle width="160" height="40" as="alternateBounds" />
          </mxGeometry>
        </mxCell>
        <mxCell id="fOyBpGXJ5a-ghSul3GZQ-143" value="" style="shape=partialRectangle;collapsible=0;dropTarget=0;pointerEvents=0;fillColor=none;top=0;left=0;bottom=0;right=0;points=[[0,0.5],[1,0.5]];portConstraint=eastwest;" vertex="1" parent="fOyBpGXJ5a-ghSul3GZQ-132">
          <mxGeometry y="200" width="160" height="40" as="geometry" />
        </mxCell>
        <mxCell id="fOyBpGXJ5a-ghSul3GZQ-144" value="..." style="shape=partialRectangle;html=1;whiteSpace=wrap;connectable=0;overflow=hidden;fillColor=none;top=0;left=0;bottom=0;right=0;pointerEvents=1;" vertex="1" parent="fOyBpGXJ5a-ghSul3GZQ-143">
          <mxGeometry width="160" height="40" as="geometry">
            <mxRectangle width="160" height="40" as="alternateBounds" />
          </mxGeometry>
        </mxCell>
        <mxCell id="fOyBpGXJ5a-ghSul3GZQ-145" value="" style="shape=partialRectangle;collapsible=0;dropTarget=0;pointerEvents=0;fillColor=none;top=0;left=0;bottom=0;right=0;points=[[0,0.5],[1,0.5]];portConstraint=eastwest;" vertex="1" parent="fOyBpGXJ5a-ghSul3GZQ-132">
          <mxGeometry y="240" width="160" height="40" as="geometry" />
        </mxCell>
        <mxCell id="fOyBpGXJ5a-ghSul3GZQ-146" value="..." style="shape=partialRectangle;html=1;whiteSpace=wrap;connectable=0;overflow=hidden;fillColor=none;top=0;left=0;bottom=0;right=0;pointerEvents=1;" vertex="1" parent="fOyBpGXJ5a-ghSul3GZQ-145">
          <mxGeometry width="160" height="40" as="geometry">
            <mxRectangle width="160" height="40" as="alternateBounds" />
          </mxGeometry>
        </mxCell>
        <mxCell id="fOyBpGXJ5a-ghSul3GZQ-147" value="" style="shape=partialRectangle;collapsible=0;dropTarget=0;pointerEvents=0;fillColor=none;top=0;left=0;bottom=0;right=0;points=[[0,0.5],[1,0.5]];portConstraint=eastwest;" vertex="1" parent="fOyBpGXJ5a-ghSul3GZQ-132">
          <mxGeometry y="280" width="160" height="40" as="geometry" />
        </mxCell>
        <mxCell id="fOyBpGXJ5a-ghSul3GZQ-148" value="..." style="shape=partialRectangle;html=1;whiteSpace=wrap;connectable=0;overflow=hidden;fillColor=none;top=0;left=0;bottom=0;right=0;pointerEvents=1;" vertex="1" parent="fOyBpGXJ5a-ghSul3GZQ-147">
          <mxGeometry width="160" height="40" as="geometry">
            <mxRectangle width="160" height="40" as="alternateBounds" />
          </mxGeometry>
        </mxCell>
        <mxCell id="fOyBpGXJ5a-ghSul3GZQ-149" value="" style="shape=partialRectangle;collapsible=0;dropTarget=0;pointerEvents=0;fillColor=none;top=0;left=0;bottom=0;right=0;points=[[0,0.5],[1,0.5]];portConstraint=eastwest;" vertex="1" parent="fOyBpGXJ5a-ghSul3GZQ-132">
          <mxGeometry y="320" width="160" height="40" as="geometry" />
        </mxCell>
        <mxCell id="fOyBpGXJ5a-ghSul3GZQ-150" value="" style="shape=partialRectangle;html=1;whiteSpace=wrap;connectable=0;overflow=hidden;fillColor=none;top=0;left=0;bottom=0;right=0;pointerEvents=1;" vertex="1" parent="fOyBpGXJ5a-ghSul3GZQ-149">
          <mxGeometry width="160" height="40" as="geometry">
            <mxRectangle width="160" height="40" as="alternateBounds" />
          </mxGeometry>
        </mxCell>
        <mxCell id="fOyBpGXJ5a-ghSul3GZQ-151" value="" style="shape=partialRectangle;collapsible=0;dropTarget=0;pointerEvents=0;fillColor=none;top=0;left=0;bottom=0;right=0;points=[[0,0.5],[1,0.5]];portConstraint=eastwest;" vertex="1" parent="fOyBpGXJ5a-ghSul3GZQ-132">
          <mxGeometry y="360" width="160" height="40" as="geometry" />
        </mxCell>
        <mxCell id="fOyBpGXJ5a-ghSul3GZQ-152" value="" style="shape=partialRectangle;html=1;whiteSpace=wrap;connectable=0;overflow=hidden;fillColor=none;top=0;left=0;bottom=0;right=0;pointerEvents=1;" vertex="1" parent="fOyBpGXJ5a-ghSul3GZQ-151">
          <mxGeometry width="160" height="40" as="geometry">
            <mxRectangle width="160" height="40" as="alternateBounds" />
          </mxGeometry>
        </mxCell>
        <mxCell id="fOyBpGXJ5a-ghSul3GZQ-153" value="高地址" style="text;html=1;align=center;verticalAlign=middle;resizable=0;points=[];autosize=1;strokeColor=none;fillColor=none;" vertex="1" parent="fOyBpGXJ5a-ghSul3GZQ-131">
          <mxGeometry x="70" width="50" height="20" as="geometry" />
        </mxCell>
        <mxCell id="fOyBpGXJ5a-ghSul3GZQ-154" value="低地址" style="text;html=1;align=center;verticalAlign=middle;resizable=0;points=[];autosize=1;strokeColor=none;fillColor=none;" vertex="1" parent="fOyBpGXJ5a-ghSul3GZQ-131">
          <mxGeometry x="70" y="400" width="50" height="20" as="geometry" />
        </mxCell>
        <mxCell id="fOyBpGXJ5a-ghSul3GZQ-155" value="" style="endArrow=none;html=1;strokeWidth=1;dashed=1;" edge="1" parent="fOyBpGXJ5a-ghSul3GZQ-131">
          <mxGeometry width="50" height="50" relative="1" as="geometry">
            <mxPoint x="50" y="20" as="sourcePoint" />
            <mxPoint x="110" y="20" as="targetPoint" />
          </mxGeometry>
        </mxCell>
        <mxCell id="fOyBpGXJ5a-ghSul3GZQ-156" value="" style="endArrow=classic;html=1;dashed=1;strokeWidth=1;" edge="1" parent="fOyBpGXJ5a-ghSul3GZQ-131">
          <mxGeometry width="50" height="50" relative="1" as="geometry">
            <mxPoint x="80" y="20" as="sourcePoint" />
            <mxPoint x="80" y="70" as="targetPoint" />
          </mxGeometry>
        </mxCell>
        <mxCell id="fOyBpGXJ5a-ghSul3GZQ-157" value="栈拓展方向" style="text;html=1;align=center;verticalAlign=middle;resizable=0;points=[];autosize=1;strokeColor=none;fillColor=none;" vertex="1" parent="fOyBpGXJ5a-ghSul3GZQ-131">
          <mxGeometry y="30" width="80" height="20" as="geometry" />
        </mxCell>
        <mxCell id="fOyBpGXJ5a-ghSul3GZQ-158" value="" style="group" vertex="1" connectable="0" parent="fOyBpGXJ5a-ghSul3GZQ-131">
          <mxGeometry x="50" y="80" width="60" height="20.000000000000114" as="geometry" />
        </mxCell>
        <mxCell id="fOyBpGXJ5a-ghSul3GZQ-159" value="" style="endArrow=classic;html=1;strokeWidth=1;" edge="1" parent="fOyBpGXJ5a-ghSul3GZQ-158">
          <mxGeometry width="50" height="50" relative="1" as="geometry">
            <mxPoint y="20.000000000000114" as="sourcePoint" />
            <mxPoint x="60" y="20.000000000000114" as="targetPoint" />
          </mxGeometry>
        </mxCell>
        <mxCell id="fOyBpGXJ5a-ghSul3GZQ-160" value="esp" style="text;html=1;align=center;verticalAlign=middle;resizable=0;points=[];autosize=1;strokeColor=none;fillColor=none;" vertex="1" parent="fOyBpGXJ5a-ghSul3GZQ-158">
          <mxGeometry x="15" width="30" height="20" as="geometry" />
        </mxCell>
        <mxCell id="fOyBpGXJ5a-ghSul3GZQ-161" value="此时备份的ebp已经出栈" style="shape=callout;whiteSpace=wrap;html=1;perimeter=calloutPerimeter;position2=0;base=20;size=25;position=0.08;rotation=0;" vertex="1" parent="fOyBpGXJ5a-ghSul3GZQ-162">
          <mxGeometry x="308" y="90" width="150" height="70" as="geometry" />
        </mxCell>
        <mxCell id="fOyBpGXJ5a-ghSul3GZQ-163" value="准备调用subtract&lt;br&gt;函数" style="text;html=1;strokeColor=none;fillColor=none;align=center;verticalAlign=middle;whiteSpace=wrap;rounded=0;fontSize=20;" vertex="1" parent="fOyBpGXJ5a-ghSul3GZQ-1">
          <mxGeometry x="160" y="560" width="160" height="80" as="geometry" />
        </mxCell>
        <mxCell id="fOyBpGXJ5a-ghSul3GZQ-164" value="&lt;font style=&quot;font-size: 20px&quot;&gt;进入函数后先备份ebp，并将ebp赋值为栈顶&lt;/font&gt;" style="text;html=1;strokeColor=none;fillColor=none;align=center;verticalAlign=middle;whiteSpace=wrap;rounded=0;fontSize=20;" vertex="1" parent="fOyBpGXJ5a-ghSul3GZQ-1">
          <mxGeometry x="560" y="560" width="240" height="80" as="geometry" />
        </mxCell>
        <mxCell id="fOyBpGXJ5a-ghSul3GZQ-165" value="被调用函数中可能出现只压栈，却未出栈情况" style="text;html=1;strokeColor=none;fillColor=none;align=center;verticalAlign=middle;whiteSpace=wrap;rounded=0;fontSize=20;" vertex="1" parent="fOyBpGXJ5a-ghSul3GZQ-1">
          <mxGeometry x="120" y="1160" width="240" height="80" as="geometry" />
        </mxCell>
        <mxCell id="fOyBpGXJ5a-ghSul3GZQ-166" value="将esp赋值为ebp，回到刚进入函数时的初始状态" style="text;html=1;strokeColor=none;fillColor=none;align=center;verticalAlign=middle;whiteSpace=wrap;rounded=0;fontSize=20;" vertex="1" parent="fOyBpGXJ5a-ghSul3GZQ-1">
          <mxGeometry x="560" y="1160" width="240" height="80" as="geometry" />
        </mxCell>
        <mxCell id="fOyBpGXJ5a-ghSul3GZQ-167" value="通过出栈恢复ebp的值，并通过ret返回函数调用处" style="text;html=1;strokeColor=none;fillColor=none;align=center;verticalAlign=middle;whiteSpace=wrap;rounded=0;fontSize=20;" vertex="1" parent="fOyBpGXJ5a-ghSul3GZQ-1">
          <mxGeometry x="120" y="1760" width="240" height="80" as="geometry" />
        </mxCell>
        <mxCell id="fOyBpGXJ5a-ghSul3GZQ-202" value="" style="group" vertex="1" connectable="0" parent="fOyBpGXJ5a-ghSul3GZQ-1">
          <mxGeometry x="480" y="1300" width="280" height="420" as="geometry" />
        </mxCell>
        <mxCell id="fOyBpGXJ5a-ghSul3GZQ-203" value="" style="shape=table;startSize=0;container=1;collapsible=0;childLayout=tableLayout;" vertex="1" parent="fOyBpGXJ5a-ghSul3GZQ-202">
          <mxGeometry x="120" y="20" width="160" height="400" as="geometry" />
        </mxCell>
        <mxCell id="fOyBpGXJ5a-ghSul3GZQ-204" value="" style="shape=partialRectangle;collapsible=0;dropTarget=0;pointerEvents=0;fillColor=none;top=0;left=0;bottom=0;right=0;points=[[0,0.5],[1,0.5]];portConstraint=eastwest;" vertex="1" parent="fOyBpGXJ5a-ghSul3GZQ-203">
          <mxGeometry width="160" height="40" as="geometry" />
        </mxCell>
        <mxCell id="fOyBpGXJ5a-ghSul3GZQ-205" value="参数2" style="shape=partialRectangle;html=1;whiteSpace=wrap;connectable=0;overflow=hidden;fillColor=none;top=0;left=0;bottom=0;right=0;pointerEvents=1;" vertex="1" parent="fOyBpGXJ5a-ghSul3GZQ-204">
          <mxGeometry width="160" height="40" as="geometry">
            <mxRectangle width="160" height="40" as="alternateBounds" />
          </mxGeometry>
        </mxCell>
        <mxCell id="fOyBpGXJ5a-ghSul3GZQ-206" value="" style="shape=partialRectangle;collapsible=0;dropTarget=0;pointerEvents=0;fillColor=none;top=0;left=0;bottom=0;right=0;points=[[0,0.5],[1,0.5]];portConstraint=eastwest;" vertex="1" parent="fOyBpGXJ5a-ghSul3GZQ-203">
          <mxGeometry y="40" width="160" height="40" as="geometry" />
        </mxCell>
        <mxCell id="fOyBpGXJ5a-ghSul3GZQ-207" value="参数1" style="shape=partialRectangle;html=1;whiteSpace=wrap;connectable=0;overflow=hidden;fillColor=none;top=0;left=0;bottom=0;right=0;pointerEvents=1;" vertex="1" parent="fOyBpGXJ5a-ghSul3GZQ-206">
          <mxGeometry width="160" height="40" as="geometry">
            <mxRectangle width="160" height="40" as="alternateBounds" />
          </mxGeometry>
        </mxCell>
        <mxCell id="fOyBpGXJ5a-ghSul3GZQ-208" value="" style="shape=partialRectangle;collapsible=0;dropTarget=0;pointerEvents=0;fillColor=none;top=0;left=0;bottom=0;right=0;points=[[0,0.5],[1,0.5]];portConstraint=eastwest;" vertex="1" parent="fOyBpGXJ5a-ghSul3GZQ-203">
          <mxGeometry y="80" width="160" height="40" as="geometry" />
        </mxCell>
        <mxCell id="fOyBpGXJ5a-ghSul3GZQ-209" value="函数返回地址" style="shape=partialRectangle;html=1;whiteSpace=wrap;connectable=0;overflow=hidden;fillColor=none;top=0;left=0;bottom=0;right=0;pointerEvents=1;" vertex="1" parent="fOyBpGXJ5a-ghSul3GZQ-208">
          <mxGeometry width="160" height="40" as="geometry">
            <mxRectangle width="160" height="40" as="alternateBounds" />
          </mxGeometry>
        </mxCell>
        <mxCell id="fOyBpGXJ5a-ghSul3GZQ-210" value="" style="shape=partialRectangle;collapsible=0;dropTarget=0;pointerEvents=0;fillColor=none;top=0;left=0;bottom=0;right=0;points=[[0,0.5],[1,0.5]];portConstraint=eastwest;" vertex="1" parent="fOyBpGXJ5a-ghSul3GZQ-203">
          <mxGeometry y="120" width="160" height="40" as="geometry" />
        </mxCell>
        <mxCell id="fOyBpGXJ5a-ghSul3GZQ-211" value="ebp" style="shape=partialRectangle;html=1;whiteSpace=wrap;connectable=0;overflow=hidden;fillColor=none;top=0;left=0;bottom=0;right=0;pointerEvents=1;" vertex="1" parent="fOyBpGXJ5a-ghSul3GZQ-210">
          <mxGeometry width="160" height="40" as="geometry">
            <mxRectangle width="160" height="40" as="alternateBounds" />
          </mxGeometry>
        </mxCell>
        <mxCell id="fOyBpGXJ5a-ghSul3GZQ-212" value="" style="shape=partialRectangle;collapsible=0;dropTarget=0;pointerEvents=0;fillColor=none;top=0;left=0;bottom=0;right=0;points=[[0,0.5],[1,0.5]];portConstraint=eastwest;" vertex="1" parent="fOyBpGXJ5a-ghSul3GZQ-203">
          <mxGeometry y="160" width="160" height="40" as="geometry" />
        </mxCell>
        <mxCell id="fOyBpGXJ5a-ghSul3GZQ-213" value="..." style="shape=partialRectangle;html=1;whiteSpace=wrap;connectable=0;overflow=hidden;fillColor=none;top=0;left=0;bottom=0;right=0;pointerEvents=1;" vertex="1" parent="fOyBpGXJ5a-ghSul3GZQ-212">
          <mxGeometry width="160" height="40" as="geometry">
            <mxRectangle width="160" height="40" as="alternateBounds" />
          </mxGeometry>
        </mxCell>
        <mxCell id="fOyBpGXJ5a-ghSul3GZQ-214" value="" style="shape=partialRectangle;collapsible=0;dropTarget=0;pointerEvents=0;fillColor=none;top=0;left=0;bottom=0;right=0;points=[[0,0.5],[1,0.5]];portConstraint=eastwest;" vertex="1" parent="fOyBpGXJ5a-ghSul3GZQ-203">
          <mxGeometry y="200" width="160" height="40" as="geometry" />
        </mxCell>
        <mxCell id="fOyBpGXJ5a-ghSul3GZQ-215" value="..." style="shape=partialRectangle;html=1;whiteSpace=wrap;connectable=0;overflow=hidden;fillColor=none;top=0;left=0;bottom=0;right=0;pointerEvents=1;" vertex="1" parent="fOyBpGXJ5a-ghSul3GZQ-214">
          <mxGeometry width="160" height="40" as="geometry">
            <mxRectangle width="160" height="40" as="alternateBounds" />
          </mxGeometry>
        </mxCell>
        <mxCell id="fOyBpGXJ5a-ghSul3GZQ-216" value="" style="shape=partialRectangle;collapsible=0;dropTarget=0;pointerEvents=0;fillColor=none;top=0;left=0;bottom=0;right=0;points=[[0,0.5],[1,0.5]];portConstraint=eastwest;" vertex="1" parent="fOyBpGXJ5a-ghSul3GZQ-203">
          <mxGeometry y="240" width="160" height="40" as="geometry" />
        </mxCell>
        <mxCell id="fOyBpGXJ5a-ghSul3GZQ-217" value="..." style="shape=partialRectangle;html=1;whiteSpace=wrap;connectable=0;overflow=hidden;fillColor=none;top=0;left=0;bottom=0;right=0;pointerEvents=1;" vertex="1" parent="fOyBpGXJ5a-ghSul3GZQ-216">
          <mxGeometry width="160" height="40" as="geometry">
            <mxRectangle width="160" height="40" as="alternateBounds" />
          </mxGeometry>
        </mxCell>
        <mxCell id="fOyBpGXJ5a-ghSul3GZQ-218" value="" style="shape=partialRectangle;collapsible=0;dropTarget=0;pointerEvents=0;fillColor=none;top=0;left=0;bottom=0;right=0;points=[[0,0.5],[1,0.5]];portConstraint=eastwest;" vertex="1" parent="fOyBpGXJ5a-ghSul3GZQ-203">
          <mxGeometry y="280" width="160" height="40" as="geometry" />
        </mxCell>
        <mxCell id="fOyBpGXJ5a-ghSul3GZQ-219" value="..." style="shape=partialRectangle;html=1;whiteSpace=wrap;connectable=0;overflow=hidden;fillColor=none;top=0;left=0;bottom=0;right=0;pointerEvents=1;" vertex="1" parent="fOyBpGXJ5a-ghSul3GZQ-218">
          <mxGeometry width="160" height="40" as="geometry">
            <mxRectangle width="160" height="40" as="alternateBounds" />
          </mxGeometry>
        </mxCell>
        <mxCell id="fOyBpGXJ5a-ghSul3GZQ-220" value="" style="shape=partialRectangle;collapsible=0;dropTarget=0;pointerEvents=0;fillColor=none;top=0;left=0;bottom=0;right=0;points=[[0,0.5],[1,0.5]];portConstraint=eastwest;" vertex="1" parent="fOyBpGXJ5a-ghSul3GZQ-203">
          <mxGeometry y="320" width="160" height="40" as="geometry" />
        </mxCell>
        <mxCell id="fOyBpGXJ5a-ghSul3GZQ-221" value="" style="shape=partialRectangle;html=1;whiteSpace=wrap;connectable=0;overflow=hidden;fillColor=none;top=0;left=0;bottom=0;right=0;pointerEvents=1;" vertex="1" parent="fOyBpGXJ5a-ghSul3GZQ-220">
          <mxGeometry width="160" height="40" as="geometry">
            <mxRectangle width="160" height="40" as="alternateBounds" />
          </mxGeometry>
        </mxCell>
        <mxCell id="fOyBpGXJ5a-ghSul3GZQ-222" value="" style="shape=partialRectangle;collapsible=0;dropTarget=0;pointerEvents=0;fillColor=none;top=0;left=0;bottom=0;right=0;points=[[0,0.5],[1,0.5]];portConstraint=eastwest;" vertex="1" parent="fOyBpGXJ5a-ghSul3GZQ-203">
          <mxGeometry y="360" width="160" height="40" as="geometry" />
        </mxCell>
        <mxCell id="fOyBpGXJ5a-ghSul3GZQ-223" value="" style="shape=partialRectangle;html=1;whiteSpace=wrap;connectable=0;overflow=hidden;fillColor=none;top=0;left=0;bottom=0;right=0;pointerEvents=1;" vertex="1" parent="fOyBpGXJ5a-ghSul3GZQ-222">
          <mxGeometry width="160" height="40" as="geometry">
            <mxRectangle width="160" height="40" as="alternateBounds" />
          </mxGeometry>
        </mxCell>
        <mxCell id="fOyBpGXJ5a-ghSul3GZQ-224" value="高地址" style="text;html=1;align=center;verticalAlign=middle;resizable=0;points=[];autosize=1;strokeColor=none;fillColor=none;" vertex="1" parent="fOyBpGXJ5a-ghSul3GZQ-202">
          <mxGeometry x="70" width="50" height="20" as="geometry" />
        </mxCell>
        <mxCell id="fOyBpGXJ5a-ghSul3GZQ-225" value="低地址" style="text;html=1;align=center;verticalAlign=middle;resizable=0;points=[];autosize=1;strokeColor=none;fillColor=none;" vertex="1" parent="fOyBpGXJ5a-ghSul3GZQ-202">
          <mxGeometry x="70" y="400" width="50" height="20" as="geometry" />
        </mxCell>
        <mxCell id="fOyBpGXJ5a-ghSul3GZQ-226" value="" style="endArrow=none;html=1;strokeWidth=1;dashed=1;" edge="1" parent="fOyBpGXJ5a-ghSul3GZQ-202">
          <mxGeometry width="50" height="50" relative="1" as="geometry">
            <mxPoint x="50" y="20" as="sourcePoint" />
            <mxPoint x="110" y="20" as="targetPoint" />
          </mxGeometry>
        </mxCell>
        <mxCell id="fOyBpGXJ5a-ghSul3GZQ-227" value="" style="endArrow=classic;html=1;dashed=1;strokeWidth=1;" edge="1" parent="fOyBpGXJ5a-ghSul3GZQ-202">
          <mxGeometry width="50" height="50" relative="1" as="geometry">
            <mxPoint x="80" y="20" as="sourcePoint" />
            <mxPoint x="80" y="70" as="targetPoint" />
          </mxGeometry>
        </mxCell>
        <mxCell id="fOyBpGXJ5a-ghSul3GZQ-228" value="栈拓展方向" style="text;html=1;align=center;verticalAlign=middle;resizable=0;points=[];autosize=1;strokeColor=none;fillColor=none;" vertex="1" parent="fOyBpGXJ5a-ghSul3GZQ-202">
          <mxGeometry y="30" width="80" height="20" as="geometry" />
        </mxCell>
        <mxCell id="fOyBpGXJ5a-ghSul3GZQ-229" value="" style="group" vertex="1" connectable="0" parent="fOyBpGXJ5a-ghSul3GZQ-202">
          <mxGeometry x="300" width="60" height="20.000000000000114" as="geometry" />
        </mxCell>
        <mxCell id="fOyBpGXJ5a-ghSul3GZQ-230" value="" style="endArrow=classic;html=1;strokeWidth=1;verticalAlign=middle;" edge="1" parent="fOyBpGXJ5a-ghSul3GZQ-229">
          <mxGeometry width="50" height="50" relative="1" as="geometry">
            <mxPoint x="60" y="20" as="sourcePoint" />
            <mxPoint y="20" as="targetPoint" />
          </mxGeometry>
        </mxCell>
        <mxCell id="fOyBpGXJ5a-ghSul3GZQ-231" value="esp" style="text;html=1;align=center;verticalAlign=middle;resizable=0;points=[];autosize=1;strokeColor=none;fillColor=none;" vertex="1" parent="fOyBpGXJ5a-ghSul3GZQ-229">
          <mxGeometry x="15" width="30" height="20" as="geometry" />
        </mxCell>
        <mxCell id="fOyBpGXJ5a-ghSul3GZQ-233" value="由主调函数回收栈空间，此时eax的值为函数返回值" style="text;html=1;strokeColor=none;fillColor=none;align=center;verticalAlign=middle;whiteSpace=wrap;rounded=0;fontSize=20;" vertex="1" parent="fOyBpGXJ5a-ghSul3GZQ-1">
          <mxGeometry x="560" y="1760" width="240" height="80" as="geometry" />
        </mxCell>
      </root>
    </mxGraphModel>
  </diagram>
</mxfile>
